<svg width="382" height="46" viewBox="0 0 382 46" fill="none" xmlns="http://www.w3.org/2000/svg">
<rect x="0.5" y="0.5" width="381" height="45" rx="22.5" fill="#F7F7F8"/>
<path d="M52.104 29.144C51.1973 29.144 50.3813 29.0267 49.656 28.792C48.9307 28.5573 48.3013 28.2267 47.768 27.8L48.28 26.616C48.6533 26.8933 49.032 27.128 49.416 27.32C49.8 27.5013 50.2107 27.64 50.648 27.736C51.096 27.8213 51.5813 27.864 52.104 27.864C53.032 27.864 53.7147 27.6987 54.152 27.368C54.6 27.0267 54.824 26.5787 54.824 26.024C54.824 25.544 54.6693 25.176 54.36 24.92C54.0507 24.664 53.512 24.4613 52.744 24.312L51.032 23.96C49.9973 23.7467 49.224 23.4 48.712 22.92C48.2107 22.4293 47.96 21.768 47.96 20.936C47.96 20.264 48.136 19.6773 48.488 19.176C48.8507 18.664 49.3467 18.2693 49.976 17.992C50.616 17.7147 51.3627 17.576 52.216 17.576C53.0053 17.576 53.736 17.6933 54.408 17.928C55.08 18.1627 55.6453 18.5093 56.104 18.968L55.592 20.104C55.112 19.6667 54.5947 19.352 54.04 19.16C53.496 18.9573 52.8773 18.856 52.184 18.856C51.3413 18.856 50.6747 19.0373 50.184 19.4C49.6933 19.7627 49.448 20.2533 49.448 20.872C49.448 21.3627 49.6027 21.752 49.912 22.04C50.2213 22.3173 50.7333 22.5307 51.448 22.68L53.16 23.016C54.248 23.2293 55.0427 23.5653 55.544 24.024C56.056 24.4827 56.312 25.1173 56.312 25.928C56.312 26.568 56.1413 27.1333 55.8 27.624C55.4587 28.104 54.9733 28.4773 54.344 28.744C53.7147 29.0107 52.968 29.144 52.104 29.144ZM62.2469 29.144C60.9669 29.144 59.9535 28.776 59.2069 28.04C58.4709 27.304 58.1029 26.2907 58.1029 25C58.1029 24.1467 58.2629 23.4107 58.5829 22.792C58.9135 22.1627 59.3669 21.6773 59.9429 21.336C60.5189 20.984 61.1909 20.808 61.9589 20.808C62.6949 20.808 63.3189 20.968 63.8309 21.288C64.3429 21.5973 64.7322 22.04 64.9989 22.616C65.2655 23.192 65.3989 23.8747 65.3989 24.664V25.144H59.2389V24.28H64.4069L64.1349 24.488C64.1349 23.656 63.9482 23.0107 63.5749 22.552C63.2122 22.0933 62.6735 21.864 61.9589 21.864C61.1802 21.864 60.5775 22.136 60.1509 22.68C59.7242 23.2133 59.5109 23.944 59.5109 24.872V25.016C59.5109 25.9973 59.7509 26.7387 60.2309 27.24C60.7215 27.7413 61.3989 27.992 62.2629 27.992C62.7429 27.992 63.1909 27.9227 63.6069 27.784C64.0229 27.6453 64.4229 27.416 64.8069 27.096L65.2869 28.104C64.9242 28.4347 64.4709 28.6907 63.9269 28.872C63.3935 29.0533 62.8335 29.144 62.2469 29.144ZM70.6936 29.144C69.9896 29.144 69.371 28.9787 68.8376 28.648C68.3043 28.3173 67.8883 27.8373 67.5896 27.208C67.291 26.5787 67.1416 25.832 67.1416 24.968C67.1416 24.104 67.291 23.3627 67.5896 22.744C67.8883 22.1147 68.3043 21.6347 68.8376 21.304C69.371 20.9733 69.9896 20.808 70.6936 20.808C71.4083 20.808 72.027 20.9893 72.5496 21.352C73.083 21.704 73.435 22.1893 73.6056 22.808H73.4136L73.5896 20.952H74.9976C74.9656 21.272 74.9336 21.592 74.9016 21.912C74.8803 22.232 74.8696 22.5467 74.8696 22.856V29H73.4136V27.16H73.5896C73.419 27.768 73.067 28.2533 72.5336 28.616C72.011 28.968 71.3976 29.144 70.6936 29.144ZM71.0296 27.992C71.755 27.992 72.3363 27.736 72.7736 27.224C73.211 26.712 73.4296 25.96 73.4296 24.968C73.4296 23.976 73.211 23.2293 72.7736 22.728C72.3363 22.2267 71.755 21.976 71.0296 21.976C70.3043 21.976 69.7176 22.2267 69.2696 22.728C68.8323 23.2293 68.6136 23.976 68.6136 24.968C68.6136 25.96 68.8323 26.712 69.2696 27.224C69.707 27.736 70.2936 27.992 71.0296 27.992ZM77.6131 29V22.92C77.6131 22.6 77.6025 22.2747 77.5811 21.944C77.5705 21.6027 77.5438 21.272 77.5011 20.952H78.9091L79.0851 22.968L78.8451 22.984C78.9518 22.4933 79.1331 22.088 79.3891 21.768C79.6558 21.4373 79.9705 21.1973 80.3331 21.048C80.7065 20.888 81.0905 20.808 81.4851 20.808C81.6558 20.808 81.7998 20.8133 81.9171 20.824C82.0345 20.8347 82.1518 20.8613 82.2691 20.904L82.2371 22.2C82.0771 22.136 81.9278 22.0987 81.7891 22.088C81.6611 22.0667 81.5011 22.056 81.3091 22.056C80.8398 22.056 80.4345 22.1627 80.0931 22.376C79.7625 22.5893 79.5065 22.872 79.3251 23.224C79.1545 23.576 79.0691 23.9547 79.0691 24.36V29H77.6131ZM87.2176 29.144C86.4176 29.144 85.7243 28.9787 85.1376 28.648C84.551 28.3067 84.0923 27.8213 83.7616 27.192C83.4416 26.552 83.2816 25.7947 83.2816 24.92C83.2816 24.056 83.447 23.32 83.7776 22.712C84.1083 22.0933 84.567 21.624 85.1536 21.304C85.7403 20.9733 86.4283 20.808 87.2176 20.808C87.7403 20.808 88.247 20.8987 88.7376 21.08C89.2283 21.2507 89.6283 21.5013 89.9376 21.832L89.4416 22.856C89.1323 22.5573 88.791 22.3387 88.4176 22.2C88.0443 22.0507 87.6763 21.976 87.3136 21.976C86.5243 21.976 85.9056 22.232 85.4576 22.744C85.0096 23.2453 84.7856 23.976 84.7856 24.936C84.7856 25.9067 85.0096 26.6533 85.4576 27.176C85.9056 27.6987 86.5243 27.96 87.3136 27.96C87.6656 27.96 88.0283 27.8907 88.4016 27.752C88.775 27.6133 89.1216 27.3947 89.4416 27.096L89.9376 28.104C89.6176 28.4453 89.207 28.7067 88.7056 28.888C88.215 29.0587 87.719 29.144 87.2176 29.144ZM92.0347 29V17.224H93.4907V22.696H93.2827C93.5174 22.0773 93.8961 21.608 94.4187 21.288C94.9414 20.968 95.5441 20.808 96.2267 20.808C97.1974 20.808 97.9121 21.0693 98.3707 21.592C98.8401 22.1147 99.0747 22.904 99.0747 23.96V29H97.6187V24.04C97.6187 23.3253 97.4801 22.808 97.2027 22.488C96.9254 22.1573 96.4721 21.992 95.8427 21.992C95.1387 21.992 94.5681 22.2107 94.1307 22.648C93.7041 23.0853 93.4907 23.6667 93.4907 24.392V29H92.0347Z" fill="#737B8C"/>
<path d="M351.75 14C350.755 14 349.802 14.3951 349.098 15.0983C348.395 15.8016 348 16.7554 348 17.75V23C348 23.9946 348.395 24.9484 349.098 25.6517C349.802 26.3549 350.755 26.75 351.75 26.75C352.745 26.75 353.698 26.3549 354.402 25.6517C355.105 24.9484 355.5 23.9946 355.5 23V17.75C355.5 16.7554 355.105 15.8016 354.402 15.0983C353.698 14.3951 352.745 14 351.75 14Z" fill="#737B8C"/>
<path d="M345.75 22.25C345.949 22.25 346.14 22.329 346.28 22.4697C346.421 22.6103 346.5 22.8011 346.5 23C346.5 24.3924 347.053 25.7277 348.038 26.7123C349.022 27.6969 350.358 28.25 351.75 28.25C353.142 28.25 354.478 27.6969 355.462 26.7123C356.447 25.7277 357 24.3924 357 23C357 22.8011 357.079 22.6103 357.22 22.4697C357.36 22.329 357.551 22.25 357.75 22.25C357.949 22.25 358.14 22.329 358.28 22.4697C358.421 22.6103 358.5 22.8011 358.5 23C358.5 24.6606 357.889 26.263 356.782 27.5008C355.675 28.7386 354.15 29.525 352.5 29.7095V31.25C352.5 31.4489 352.421 31.6397 352.28 31.7803C352.14 31.921 351.949 32 351.75 32C351.551 32 351.36 31.921 351.22 31.7803C351.079 31.6397 351 31.4489 351 31.25V29.7095C349.35 29.525 347.825 28.7386 346.718 27.5008C345.611 26.263 345 24.6606 345 23C345 22.8011 345.079 22.6103 345.22 22.4697C345.36 22.329 345.551 22.25 345.75 22.25Z" fill="#737B8C"/>
<path d="M37 31L33.2223 27.2156L37 31ZM35.3158 22.1579C35.3158 24.0563 34.5617 25.8769 33.2193 27.2193C31.8769 28.5617 30.0563 29.3158 28.1579 29.3158C26.2595 29.3158 24.4389 28.5617 23.0965 27.2193C21.7541 25.8769 21 24.0563 21 22.1579C21 20.2595 21.7541 18.4389 23.0965 17.0965C24.4389 15.7541 26.2595 15 28.1579 15C30.0563 15 31.8769 15.7541 33.2193 17.0965C34.5617 18.4389 35.3158 20.2595 35.3158 22.1579V22.1579Z" stroke="#737B8C" stroke-width="2" stroke-linecap="round"/>
<rect x="0.5" y="0.5" width="381" height="45" rx="22.5" stroke="#E3E5E8"/>
</svg>
