<svg width="100" height="94" viewBox="0 0 100 94" fill="none" xmlns="http://www.w3.org/2000/svg">
<g filter="url(#filter0_d_496_981)">
<path d="M42.453 35.167C42.3862 35.0989 42.3067 35.0446 42.219 35.0073C42.1312 34.9699 42.037 34.9502 41.9416 34.9493C41.8462 34.9483 41.7516 34.9662 41.6631 35.0019C41.5747 35.0375 41.4941 35.0902 41.426 35.157C40.656 35.9226 40.0451 36.8331 39.6287 37.836C39.2124 38.8388 38.9987 39.9142 39 41C38.9988 42.1276 39.2293 43.2433 39.6772 44.278C40.1252 45.3128 40.781 46.2444 41.604 47.015C41.7425 47.1431 41.9255 47.2121 42.1141 47.2074C42.3027 47.2028 42.482 47.1248 42.614 46.99C42.93 46.674 42.891 46.171 42.587 45.88C41.9265 45.2506 41.4009 44.4934 41.0421 43.6545C40.6834 42.8156 40.4989 41.9125 40.5 41C40.5 39.154 41.241 37.48 42.443 36.262C42.733 35.967 42.763 35.477 42.453 35.167Z" fill="#17191C"/>
<path d="M44.214 36.9293C44.0823 36.7938 43.9023 36.716 43.7133 36.713C43.5244 36.71 43.3419 36.782 43.206 36.9133C42.6648 37.4473 42.2353 38.0837 41.9424 38.7854C41.6495 39.487 41.4991 40.2399 41.5 41.0003C41.5 42.6923 42.23 44.2133 43.393 45.2643C43.5303 45.3855 43.7089 45.4493 43.8919 45.4424C44.0749 45.4356 44.2483 45.3585 44.376 45.2273C44.704 44.8993 44.643 44.3833 44.335 44.0933C43.9128 43.6964 43.5765 43.2172 43.3469 42.6852C43.1173 42.1532 42.9992 41.5797 43 41.0003C43 39.8503 43.457 38.8063 44.2 38.0403C44.486 37.7463 44.533 37.2473 44.214 36.9293Z" fill="#17191C"/>
<path d="M49.7861 36.9293C49.9178 36.7938 50.0978 36.716 50.2868 36.713C50.4757 36.71 50.6581 36.782 50.7941 36.9133C51.3352 37.4473 51.7648 38.0837 52.0577 38.7854C52.3505 39.487 52.5009 40.2399 52.5001 41.0003C52.5001 42.6923 51.7701 44.2133 50.6071 45.2643C50.4698 45.3855 50.2912 45.4493 50.1082 45.4424C49.9252 45.4356 49.7518 45.3585 49.6241 45.2273C49.2961 44.8993 49.3571 44.3833 49.6651 44.0933C50.0873 43.6964 50.4236 43.2172 50.6532 42.6852C50.8828 42.1532 51.0009 41.5797 51.0001 41.0003C51.0001 39.8503 50.5431 38.8063 49.8001 38.0403C49.5141 37.7463 49.4671 37.2473 49.7861 36.9293Z" fill="#17191C"/>
<path d="M51.5471 35.167C51.6138 35.0989 51.6933 35.0446 51.7811 35.0073C51.8689 34.9699 51.9631 34.9502 52.0585 34.9493C52.1539 34.9483 52.2485 34.9662 52.3369 35.0019C52.4254 35.0375 52.506 35.0902 52.5741 35.157C53.3441 35.9226 53.9549 36.8331 54.3713 37.836C54.7877 38.8388 55.0014 39.9142 55.0001 41C55.0013 42.1276 54.7708 43.2433 54.3229 44.278C53.8749 45.3128 53.2191 46.2444 52.3961 47.015C52.2575 47.1431 52.0746 47.2121 51.886 47.2074C51.6974 47.2028 51.5181 47.1248 51.3861 46.99C51.0701 46.674 51.1091 46.171 51.4141 45.88C52.0744 45.2505 52.5998 44.4933 52.9584 43.6544C53.317 42.8154 53.5013 41.9124 53.5001 41C53.5001 39.154 52.7591 37.48 51.5571 36.262C51.2671 35.967 51.2371 35.477 51.5471 35.167Z" fill="#17191C"/>
<path d="M47 39.5C46.6022 39.5 46.2206 39.658 45.9393 39.9393C45.658 40.2206 45.5 40.6022 45.5 41C45.5 41.3978 45.658 41.7794 45.9393 42.0607C46.2206 42.342 46.6022 42.5 47 42.5C47.3978 42.5 47.7794 42.342 48.0607 42.0607C48.342 41.7794 48.5 41.3978 48.5 41C48.5 40.6022 48.342 40.2206 48.0607 39.9393C47.7794 39.658 47.3978 39.5 47 39.5Z" fill="#17191C"/>
<rect x="12.5" y="6.5" width="75" height="69" rx="15.5" fill="white" stroke="white"/>
<path d="M36.3386 64V55.54H40.2866C41.2386 55.54 41.9586 55.772 42.4466 56.236C42.9426 56.692 43.1906 57.32 43.1906 58.12C43.1906 58.912 42.9426 59.544 42.4466 60.016C41.9586 60.48 41.2386 60.712 40.2866 60.712H38.2106V64H36.3386ZM38.2106 59.26H40.0466C40.4946 59.26 40.8266 59.16 41.0426 58.96C41.2666 58.76 41.3786 58.48 41.3786 58.12C41.3786 57.76 41.2666 57.484 41.0426 57.292C40.8266 57.092 40.4946 56.992 40.0466 56.992H38.2106V59.26ZM44.1871 64V59.524C44.1871 59.26 44.1791 58.992 44.1631 58.72C44.1551 58.448 44.1351 58.18 44.1031 57.916H45.8431L46.0471 59.692H45.7711C45.8511 59.26 45.9791 58.904 46.1551 58.624C46.3391 58.344 46.5631 58.136 46.8271 58C47.0991 57.864 47.4071 57.796 47.7511 57.796C47.9031 57.796 48.0231 57.804 48.1111 57.82C48.1991 57.828 48.2871 57.848 48.3751 57.88L48.3631 59.476C48.1951 59.404 48.0511 59.36 47.9311 59.344C47.8191 59.32 47.6751 59.308 47.4991 59.308C47.1631 59.308 46.8831 59.372 46.6591 59.5C46.4431 59.628 46.2791 59.816 46.1671 60.064C46.0631 60.312 46.0111 60.612 46.0111 60.964V64H44.1871ZM49.1327 64V57.916H50.9447V64H49.1327ZM49.0607 56.92V55.228H51.0047V56.92H49.0607ZM52.2456 64V62.824L55.8696 58.84V59.272H52.2456V57.916H57.5016V59.104L53.8296 63.124L53.8176 62.656H57.6216V64H52.2456ZM61.7317 64.132C60.6757 64.132 59.8517 63.848 59.2597 63.28C58.6677 62.712 58.3717 61.94 58.3717 60.964C58.3717 60.332 58.4957 59.78 58.7437 59.308C58.9997 58.836 59.3517 58.468 59.7997 58.204C60.2557 57.932 60.7877 57.796 61.3957 57.796C61.9957 57.796 62.4957 57.924 62.8957 58.18C63.3037 58.436 63.6077 58.796 63.8077 59.26C64.0157 59.716 64.1197 60.248 64.1197 60.856V61.276H59.8597V60.376H62.7997L62.5957 60.544C62.5957 60.04 62.4917 59.66 62.2837 59.404C62.0837 59.14 61.7917 59.008 61.4077 59.008C60.9837 59.008 60.6557 59.164 60.4237 59.476C60.1997 59.788 60.0877 60.236 60.0877 60.82V61.012C60.0877 61.604 60.2317 62.044 60.5197 62.332C60.8157 62.62 61.2397 62.764 61.7917 62.764C62.1197 62.764 62.4277 62.724 62.7157 62.644C63.0117 62.556 63.2917 62.42 63.5557 62.236L64.0597 63.436C63.7557 63.66 63.4037 63.832 63.0037 63.952C62.6117 64.072 62.1877 64.132 61.7317 64.132Z" fill="#17191C"/>
<path d="M53.3333 19.6668C54.1106 19.6667 54.8735 19.8756 55.5423 20.2717C56.211 20.6678 56.7609 21.2365 57.1343 21.9182C57.5077 22.5999 57.6909 23.3694 57.6647 24.1462C57.6385 24.923 57.4039 25.6785 56.9853 26.3334H60.3333C61.2533 26.3334 62 27.0801 62 28.0001V32.6668C62.0001 33.051 61.8674 33.4234 61.6244 33.7211C61.3815 34.0187 61.0431 34.2232 60.6667 34.3001V42.0001C60.6667 43.1069 60.2433 44.1719 59.4831 44.9764C58.7229 45.7809 57.6837 46.2641 56.5787 46.3268L56.3333 46.3334H43.6667C42.5598 46.3335 41.4949 45.91 40.6904 45.1499C39.8858 44.3897 39.4027 43.3505 39.34 42.2454L39.3333 42.0001V34.3001C38.5733 34.1454 38 33.4734 38 32.6668V28.0001C38 27.0801 38.7467 26.3334 39.6667 26.3334H43.0147C42.4166 25.4042 42.1961 24.2815 42.3983 23.1951C42.6006 22.1086 43.2103 21.1405 44.1027 20.4887C44.9951 19.8369 46.1029 19.5508 47.1993 19.6887C48.2958 19.8266 49.2981 20.3782 50.0013 21.2308C50.4073 20.7408 50.9164 20.3465 51.4924 20.0761C52.0684 19.8058 52.697 19.666 53.3333 19.6668ZM49 34.3321H41.3333V42.0001C41.3334 42.5857 41.5536 43.1498 41.9502 43.5806C42.3469 44.0114 42.8911 44.2772 43.4747 44.3254L43.6667 44.3334H49V34.3321ZM58.6667 34.3321H51V44.3334H56.3333C56.9191 44.3334 57.4835 44.113 57.9143 43.716C58.3451 43.3191 58.6108 42.7746 58.6587 42.1908L58.6667 42.0001V34.3321ZM49 28.3334H40V32.3334L49 32.3321V28.3334ZM60 32.3334V28.3334H51V32.3321L60 32.3334ZM53.3333 21.6668C52.7145 21.6668 52.121 21.9126 51.6834 22.3502C51.2458 22.7878 51 23.3813 51 24.0001V26.3321H53.3653L53.5253 26.3254C54.1253 26.2756 54.6828 25.9958 55.0813 25.5446C55.4798 25.0933 55.6884 24.5055 55.6636 23.904C55.6388 23.3025 55.3825 22.7338 54.9482 22.3169C54.514 21.9 53.9354 21.667 53.3333 21.6668ZM46.6667 21.6668C46.0646 21.667 45.486 21.9 45.0518 22.3169C44.6175 22.7338 44.3612 23.3025 44.3364 23.904C44.3116 24.5055 44.5202 25.0933 44.9187 25.5446C45.3172 25.9958 45.8747 26.2756 46.4747 26.3254L46.6347 26.3321H49V24.0001L48.992 23.8081C48.9438 23.2245 48.678 22.6803 48.2472 22.2837C47.8164 21.887 47.2523 21.6668 46.6667 21.6668Z" fill="#17191C"/>
</g>
<defs>
<filter id="filter0_d_496_981" x="0" y="0" width="100" height="94" filterUnits="userSpaceOnUse" color-interpolation-filters="sRGB">
<feFlood flood-opacity="0" result="BackgroundImageFix"/>
<feColorMatrix in="SourceAlpha" type="matrix" values="0 0 0 0 0 0 0 0 0 0 0 0 0 0 0 0 0 0 127 0" result="hardAlpha"/>
<feOffset dy="6"/>
<feGaussianBlur stdDeviation="6"/>
<feComposite in2="hardAlpha" operator="out"/>
<feColorMatrix type="matrix" values="0 0 0 0 0.592708 0 0 0 0 0.626354 0 0 0 0 0.698958 0 0 0 0.26 0"/>
<feBlend mode="normal" in2="BackgroundImageFix" result="effect1_dropShadow_496_981"/>
<feBlend mode="normal" in="SourceGraphic" in2="effect1_dropShadow_496_981" result="shape"/>
</filter>
</defs>
</svg>
