<svg width="100" height="94" viewBox="0 0 100 94" fill="none" xmlns="http://www.w3.org/2000/svg">
<g filter="url(#filter0_d_496_947)">
<path d="M42.453 35.167C42.3862 35.0989 42.3067 35.0446 42.219 35.0073C42.1312 34.9699 42.037 34.9502 41.9416 34.9493C41.8462 34.9483 41.7516 34.9662 41.6631 35.0019C41.5747 35.0375 41.4941 35.0902 41.426 35.157C40.656 35.9226 40.0451 36.8331 39.6287 37.836C39.2124 38.8388 38.9987 39.9142 39 41C38.9988 42.1276 39.2293 43.2433 39.6772 44.278C40.1252 45.3128 40.781 46.2444 41.604 47.015C41.7425 47.1431 41.9255 47.2121 42.1141 47.2074C42.3027 47.2028 42.482 47.1248 42.614 46.99C42.93 46.674 42.891 46.171 42.587 45.88C41.9265 45.2506 41.4009 44.4934 41.0421 43.6545C40.6834 42.8156 40.4989 41.9125 40.5 41C40.5 39.154 41.241 37.48 42.443 36.262C42.733 35.967 42.763 35.477 42.453 35.167Z" fill="#17191C"/>
<path d="M44.214 36.9293C44.0823 36.7938 43.9023 36.716 43.7133 36.713C43.5244 36.71 43.3419 36.782 43.206 36.9133C42.6648 37.4473 42.2353 38.0837 41.9424 38.7854C41.6495 39.487 41.4991 40.2399 41.5 41.0003C41.5 42.6923 42.23 44.2133 43.393 45.2643C43.5303 45.3855 43.7089 45.4493 43.8919 45.4424C44.0749 45.4356 44.2483 45.3585 44.376 45.2273C44.704 44.8993 44.643 44.3833 44.335 44.0933C43.9128 43.6964 43.5765 43.2172 43.3469 42.6852C43.1173 42.1532 42.9992 41.5797 43 41.0003C43 39.8503 43.457 38.8063 44.2 38.0403C44.486 37.7463 44.533 37.2473 44.214 36.9293Z" fill="#17191C"/>
<path d="M49.7861 36.9293C49.9178 36.7938 50.0978 36.716 50.2868 36.713C50.4757 36.71 50.6581 36.782 50.7941 36.9133C51.3352 37.4473 51.7648 38.0837 52.0577 38.7854C52.3505 39.487 52.5009 40.2399 52.5001 41.0003C52.5001 42.6923 51.7701 44.2133 50.6071 45.2643C50.4698 45.3855 50.2912 45.4493 50.1082 45.4424C49.9252 45.4356 49.7518 45.3585 49.6241 45.2273C49.2961 44.8993 49.3571 44.3833 49.6651 44.0933C50.0873 43.6964 50.4236 43.2172 50.6532 42.6852C50.8828 42.1532 51.0009 41.5797 51.0001 41.0003C51.0001 39.8503 50.5431 38.8063 49.8001 38.0403C49.5141 37.7463 49.4671 37.2473 49.7861 36.9293Z" fill="#17191C"/>
<path d="M51.5471 35.167C51.6138 35.0989 51.6933 35.0446 51.7811 35.0073C51.8689 34.9699 51.9631 34.9502 52.0585 34.9493C52.1539 34.9483 52.2485 34.9662 52.3369 35.0019C52.4254 35.0375 52.506 35.0902 52.5741 35.157C53.3441 35.9226 53.9549 36.8331 54.3713 37.836C54.7877 38.8388 55.0014 39.9142 55.0001 41C55.0013 42.1276 54.7708 43.2433 54.3229 44.278C53.8749 45.3128 53.2191 46.2444 52.3961 47.015C52.2575 47.1431 52.0746 47.2121 51.886 47.2074C51.6974 47.2028 51.5181 47.1248 51.3861 46.99C51.0701 46.674 51.1091 46.171 51.4141 45.88C52.0744 45.2505 52.5998 44.4933 52.9584 43.6544C53.317 42.8154 53.5013 41.9124 53.5001 41C53.5001 39.154 52.7591 37.48 51.5571 36.262C51.2671 35.967 51.2371 35.477 51.5471 35.167Z" fill="#17191C"/>
<path d="M47 39.5C46.6022 39.5 46.2206 39.658 45.9393 39.9393C45.658 40.2206 45.5 40.6022 45.5 41C45.5 41.3978 45.658 41.7794 45.9393 42.0607C46.2206 42.342 46.6022 42.5 47 42.5C47.3978 42.5 47.7794 42.342 48.0607 42.0607C48.342 41.7794 48.5 41.3978 48.5 41C48.5 40.6022 48.342 40.2206 48.0607 39.9393C47.7794 39.658 47.3978 39.5 47 39.5Z" fill="#17191C"/>
<rect x="12.5" y="6.5" width="75" height="69" rx="15.5" fill="white" stroke="white"/>
<path d="M35.0178 64.132C34.3378 64.132 33.7018 64.048 33.1098 63.88C32.5178 63.712 32.0138 63.48 31.5978 63.184L32.1498 61.72C32.4218 61.904 32.7098 62.06 33.0138 62.188C33.3178 62.316 33.6378 62.416 33.9738 62.488C34.3098 62.552 34.6618 62.584 35.0298 62.584C35.6058 62.584 36.0138 62.496 36.2538 62.32C36.5018 62.144 36.6258 61.92 36.6258 61.648C36.6258 61.4 36.5418 61.212 36.3738 61.084C36.2138 60.948 35.9178 60.832 35.4858 60.736L34.0698 60.448C33.2938 60.288 32.7138 60.016 32.3298 59.632C31.9458 59.248 31.7538 58.736 31.7538 58.096C31.7538 57.552 31.8978 57.08 32.1858 56.68C32.4738 56.28 32.8778 55.968 33.3978 55.744C33.9258 55.52 34.5418 55.408 35.2458 55.408C35.8458 55.408 36.4058 55.492 36.9258 55.66C37.4458 55.828 37.8738 56.068 38.2098 56.38L37.6578 57.748C37.3298 57.484 36.9618 57.288 36.5538 57.16C36.1538 57.024 35.7058 56.956 35.2098 56.956C34.6898 56.956 34.2898 57.048 34.0098 57.232C33.7378 57.416 33.6018 57.668 33.6018 57.988C33.6018 58.228 33.6858 58.424 33.8538 58.576C34.0218 58.72 34.3178 58.836 34.7418 58.924L36.1338 59.2C36.9258 59.36 37.5138 59.628 37.8978 60.004C38.2818 60.38 38.4738 60.88 38.4738 61.504C38.4738 62.032 38.3298 62.492 38.0418 62.884C37.7618 63.276 37.3618 63.584 36.8418 63.808C36.3298 64.024 35.7218 64.132 35.0178 64.132ZM39.7362 66.592V59.5C39.7362 59.244 39.7282 58.984 39.7122 58.72C39.6962 58.448 39.6722 58.18 39.6402 57.916H41.3802L41.5242 59.104H41.3922C41.5122 58.704 41.7642 58.388 42.1482 58.156C42.5322 57.916 42.9722 57.796 43.4682 57.796C43.9962 57.796 44.4602 57.924 44.8602 58.18C45.2602 58.428 45.5722 58.788 45.7962 59.26C46.0282 59.732 46.1442 60.296 46.1442 60.952C46.1442 61.616 46.0282 62.184 45.7962 62.656C45.5722 63.128 45.2602 63.492 44.8602 63.748C44.4602 64.004 43.9962 64.132 43.4682 64.132C42.9802 64.132 42.5442 64.016 42.1602 63.784C41.7842 63.552 41.5322 63.244 41.4042 62.86H41.5482V66.592H39.7362ZM42.9162 62.764C43.3402 62.764 43.6802 62.616 43.9362 62.32C44.1922 62.024 44.3202 61.568 44.3202 60.952C44.3202 60.336 44.1922 59.884 43.9362 59.596C43.6802 59.308 43.3402 59.164 42.9162 59.164C42.5002 59.164 42.1602 59.308 41.8962 59.596C41.6402 59.884 41.5122 60.336 41.5122 60.952C41.5122 61.568 41.6402 62.024 41.8962 62.32C42.1602 62.616 42.5002 62.764 42.9162 62.764ZM50.1982 64.132C49.5502 64.132 48.9862 64.004 48.5062 63.748C48.0342 63.484 47.6662 63.116 47.4022 62.644C47.1462 62.172 47.0182 61.608 47.0182 60.952C47.0182 60.304 47.1462 59.744 47.4022 59.272C47.6662 58.8 48.0342 58.436 48.5062 58.18C48.9862 57.924 49.5502 57.796 50.1982 57.796C50.8462 57.796 51.4102 57.924 51.8902 58.18C52.3702 58.436 52.7382 58.8 52.9942 59.272C53.2582 59.744 53.3902 60.304 53.3902 60.952C53.3902 61.608 53.2582 62.172 52.9942 62.644C52.7382 63.116 52.3702 63.484 51.8902 63.748C51.4102 64.004 50.8462 64.132 50.1982 64.132ZM50.1982 62.764C50.6142 62.764 50.9422 62.616 51.1822 62.32C51.4302 62.024 51.5542 61.568 51.5542 60.952C51.5542 60.336 51.4302 59.884 51.1822 59.596C50.9422 59.308 50.6142 59.164 50.1982 59.164C49.7822 59.164 49.4502 59.308 49.2022 59.596C48.9622 59.884 48.8422 60.336 48.8422 60.952C48.8422 61.568 48.9622 62.024 49.2022 62.32C49.4502 62.616 49.7822 62.764 50.1982 62.764ZM54.5484 64V59.524C54.5484 59.26 54.5404 58.992 54.5244 58.72C54.5164 58.448 54.4964 58.18 54.4644 57.916H56.2044L56.4084 59.692H56.1324C56.2124 59.26 56.3404 58.904 56.5164 58.624C56.7004 58.344 56.9244 58.136 57.1884 58C57.4604 57.864 57.7684 57.796 58.1124 57.796C58.2644 57.796 58.3844 57.804 58.4724 57.82C58.5604 57.828 58.6484 57.848 58.7364 57.88L58.7244 59.476C58.5564 59.404 58.4124 59.36 58.2924 59.344C58.1804 59.32 58.0364 59.308 57.8604 59.308C57.5244 59.308 57.2444 59.372 57.0204 59.5C56.8044 59.628 56.6404 59.816 56.5284 60.064C56.4244 60.312 56.3724 60.612 56.3724 60.964V64H54.5484ZM62.6896 64.132C61.8976 64.132 61.3016 63.936 60.9016 63.544C60.5016 63.144 60.3016 62.548 60.3016 61.756V59.272H59.1496V57.916H60.3016V56.428L62.1136 55.984V57.916H63.6736V59.272H62.1136V61.66C62.1136 62.044 62.1936 62.308 62.3536 62.452C62.5136 62.596 62.7176 62.668 62.9656 62.668C63.1176 62.668 63.2416 62.66 63.3376 62.644C63.4416 62.62 63.5496 62.588 63.6616 62.548V63.952C63.5096 64.016 63.3496 64.06 63.1816 64.084C63.0136 64.116 62.8496 64.132 62.6896 64.132ZM66.8474 64.132C66.3034 64.132 65.8074 64.072 65.3594 63.952C64.9114 63.832 64.5314 63.664 64.2194 63.448L64.6874 62.248C64.9994 62.44 65.3434 62.592 65.7194 62.704C66.1034 62.816 66.4834 62.872 66.8594 62.872C67.2114 62.872 67.4714 62.816 67.6394 62.704C67.8074 62.592 67.8914 62.44 67.8914 62.248C67.8914 62.088 67.8354 61.964 67.7234 61.876C67.6194 61.788 67.4554 61.724 67.2314 61.684L65.9954 61.456C65.4754 61.352 65.0794 61.16 64.8074 60.88C64.5354 60.6 64.3994 60.236 64.3994 59.788C64.3994 59.396 64.5034 59.052 64.7114 58.756C64.9274 58.452 65.2354 58.216 65.6354 58.048C66.0354 57.88 66.5034 57.796 67.0394 57.796C67.4954 57.796 67.9274 57.852 68.3354 57.964C68.7434 58.076 69.0914 58.248 69.3794 58.48L68.8874 59.644C68.6394 59.46 68.3514 59.312 68.0234 59.2C67.7034 59.088 67.3954 59.032 67.0994 59.032C66.7154 59.032 66.4394 59.096 66.2714 59.224C66.1034 59.344 66.0194 59.5 66.0194 59.692C66.0194 59.836 66.0674 59.956 66.1634 60.052C66.2674 60.148 66.4234 60.22 66.6314 60.268L67.8794 60.496C68.4154 60.592 68.8234 60.772 69.1034 61.036C69.3834 61.3 69.5234 61.664 69.5234 62.128C69.5234 62.552 69.4114 62.912 69.1874 63.208C68.9634 63.504 68.6474 63.732 68.2394 63.892C67.8394 64.052 67.3754 64.132 66.8474 64.132Z" fill="#17191C"/>
<path d="M60.7143 23.3574H58.5714V22.2859C58.5708 21.7178 58.3449 21.1731 57.9431 20.7713C57.5414 20.3696 56.9967 20.1436 56.4285 20.1431H43.5714C43.0032 20.1436 42.4585 20.3696 42.0568 20.7713C41.6551 21.1731 41.4291 21.7178 41.4285 22.2859V23.3574H39.2857C38.7175 23.3579 38.1728 23.5839 37.7711 23.9856C37.3693 24.3873 37.1434 24.9321 37.1428 25.5002V28.7145C37.1442 29.8507 37.5962 30.94 38.3996 31.7434C39.2031 32.5468 40.2923 32.9988 41.4285 33.0002H41.7735C42.22 34.6403 43.1344 36.1148 44.4049 37.2438C45.6755 38.3729 47.2474 39.1075 48.9285 39.3581V43.7145H43.5714V45.8573H56.4285V43.7145H51.0714V39.3548C52.7744 39.1443 54.3744 38.4254 55.6626 37.2918C56.9508 36.1582 57.8674 34.6626 58.2928 33.0002H58.5714C59.7076 32.9988 60.7969 32.5468 61.6003 31.7434C62.4037 30.94 62.8557 29.8507 62.8571 28.7145V25.5002C62.8565 24.9321 62.6306 24.3873 62.2289 23.9856C61.8271 23.5839 61.2824 23.3579 60.7143 23.3574ZM41.4285 30.8574C40.8604 30.8568 40.3157 30.6308 39.9139 30.2291C39.5122 29.8274 39.2862 29.2826 39.2857 28.7145V25.5002H41.4285V30.8574ZM56.4285 30.8574C56.4285 31.7183 56.2556 32.5705 55.9199 33.3634C55.5843 34.1562 55.0928 34.8736 54.4746 35.4729C53.8564 36.0722 53.1242 36.5412 52.3213 36.8521C51.5184 37.163 50.6612 37.3094 49.8007 37.2827C48.0947 37.1765 46.4954 36.4169 45.3352 35.1617C44.175 33.9065 43.5433 32.2524 43.5714 30.5434V22.2859H56.4285V30.8574ZM60.7143 28.7145C60.7137 29.2826 60.4877 29.8274 60.086 30.2291C59.6843 30.6308 59.1395 30.8568 58.5714 30.8574V25.5002H60.7143V28.7145Z" fill="#17191C"/>
</g>
<defs>
<filter id="filter0_d_496_947" x="0" y="0" width="100" height="94" filterUnits="userSpaceOnUse" color-interpolation-filters="sRGB">
<feFlood flood-opacity="0" result="BackgroundImageFix"/>
<feColorMatrix in="SourceAlpha" type="matrix" values="0 0 0 0 0 0 0 0 0 0 0 0 0 0 0 0 0 0 127 0" result="hardAlpha"/>
<feOffset dy="6"/>
<feGaussianBlur stdDeviation="6"/>
<feComposite in2="hardAlpha" operator="out"/>
<feColorMatrix type="matrix" values="0 0 0 0 0.592708 0 0 0 0 0.626354 0 0 0 0 0.698958 0 0 0 0.26 0"/>
<feBlend mode="normal" in2="BackgroundImageFix" result="effect1_dropShadow_496_947"/>
<feBlend mode="normal" in="SourceGraphic" in2="effect1_dropShadow_496_947" result="shape"/>
</filter>
</defs>
</svg>
