<svg width="231" height="124" viewBox="0 0 231 124" fill="none" xmlns="http://www.w3.org/2000/svg">
<g filter="url(#filter0_dd_21_1247)">
<rect x="17.5093" y="17.8687" width="198.17" height="84.2221" rx="24.7712" fill="white"/>
<path d="M45.9056 67.4264C45.064 67.8834 44.0025 67.5741 43.6319 66.6911C42.6951 64.4592 42.2334 62.0496 42.2843 59.6168C42.3474 56.6045 43.1944 53.6606 44.7417 51.0752C46.289 48.4899 48.4832 46.3523 51.1082 44.8733C53.7331 43.3942 56.6982 42.6246 59.7112 42.6404C62.7241 42.6562 65.681 43.4567 68.2903 44.9632C70.8996 46.4697 73.0714 48.6301 74.5915 51.2316C76.1116 53.833 76.9277 56.7856 76.9592 59.7984C76.9847 62.2316 76.4978 64.6362 75.5376 66.8582C75.1578 67.7373 74.0931 68.0354 73.2563 67.5696C72.4195 67.1039 72.13 66.0508 72.4878 65.1625C73.1674 63.4751 73.5106 61.665 73.4915 59.8347C73.4662 57.4244 72.8134 55.0624 71.5973 52.9812C70.3812 50.9001 68.6438 49.1718 66.5563 47.9666C64.4688 46.7614 62.1034 46.1209 59.693 46.1083C57.2826 46.0957 54.9106 46.7113 52.8106 47.8946C50.7106 49.0779 48.9552 50.7879 47.7174 52.8562C46.4796 54.9244 45.802 57.2796 45.7515 59.6894C45.7132 61.5194 46.0375 63.333 46.6994 65.0275C47.0478 65.9195 46.7472 66.9695 45.9056 67.4264Z" fill="#E4E4E4"/>
<path d="M45.9057 67.4264C45.0641 67.8834 44.0025 67.5741 43.6319 66.6911C42.0902 63.0187 41.8534 58.9078 42.9946 55.0552C44.3008 50.6458 47.305 46.9358 51.3466 44.7414C55.3881 42.5471 60.1358 42.0481 64.5452 43.3542C68.3978 44.4954 71.7165 46.933 73.9568 50.2261C74.4955 51.0179 74.1767 52.0766 73.3351 52.5336C72.4935 52.9905 71.4492 52.6707 70.8909 51.8926C69.1039 49.4022 66.5304 47.5592 63.5602 46.6794C60.0327 45.6345 56.2345 46.0337 53.0013 47.7892C49.7681 49.5446 47.3647 52.5126 46.3198 56.0401C45.44 59.0103 45.584 62.1724 46.6994 65.0275C47.0478 65.9195 46.7473 66.9695 45.9057 67.4264Z" fill="url(#paint0_linear_21_1247)"/>
<path d="M55.0152 62.2221L58.1373 58.8333L60.2913 61.1713C60.6776 61.5905 61.3121 61.5905 61.6984 61.1713L61.6985 61.1711L65.99 56.5053C65.9901 56.5053 65.9901 56.5053 65.9901 56.5053C66.3646 56.0988 66.3646 55.45 65.99 55.0435C65.6038 54.6243 64.9692 54.6243 64.583 55.0435L64.5828 55.0437L60.9982 58.9418L58.8444 56.604C58.4582 56.1848 57.8237 56.1847 57.4374 56.6039C57.4374 56.6039 57.4374 56.604 57.4374 56.604L53.6384 60.72L52.8075 59.8181C52.6118 59.6057 52.3329 59.5729 52.1109 59.6717C51.8912 59.7695 51.7293 59.9931 51.7293 60.2735V63.6079C51.7203 63.9597 51.983 64.2709 52.3507 64.2709H55.4193C55.713 64.2709 55.9206 64.0763 56.0048 63.8575C56.0882 63.6404 56.0663 63.363 55.876 63.1565L55.0152 62.2221Z" fill="url(#paint1_linear_21_1247)" stroke="url(#paint2_linear_21_1247)" stroke-width="0.54187"/>
<path d="M102.652 49.9149V52.1431H95.7581V49.9149H102.652ZM104.934 58.6855V56.6817L110.251 51.4701C110.759 50.9567 111.183 50.5006 111.522 50.1018C111.861 49.7031 112.115 49.3167 112.284 48.9429C112.454 48.569 112.539 48.1703 112.539 47.7465C112.539 47.263 112.429 46.8493 112.21 46.5054C111.99 46.1564 111.689 45.8872 111.305 45.6978C110.921 45.5084 110.485 45.4137 109.996 45.4137C109.493 45.4137 109.052 45.5184 108.673 45.7277C108.294 45.9321 108 46.2237 107.791 46.6026C107.586 46.9814 107.484 47.4325 107.484 47.9559H104.845C104.845 46.9839 105.066 46.139 105.51 45.4212C105.954 44.7034 106.564 44.1476 107.342 43.7538C108.125 43.36 109.022 43.1631 110.034 43.1631C111.061 43.1631 111.963 43.355 112.74 43.7388C113.518 44.1226 114.121 44.6485 114.55 45.3165C114.984 45.9844 115.2 46.7471 115.2 47.6045C115.2 48.1777 115.091 48.741 114.871 49.2943C114.652 49.8476 114.266 50.4607 113.712 51.1337C113.164 51.8066 112.394 52.6216 111.402 53.5787L108.763 56.263V56.3676H115.432V58.6855H104.934ZM123.62 58.8949C122.887 58.8899 122.172 58.7628 121.474 58.5136C120.776 58.2594 120.148 57.8481 119.589 57.2799C119.031 56.7066 118.588 55.9464 118.259 54.9993C117.93 54.0473 117.768 52.8684 117.773 51.4627C117.773 50.1517 117.912 48.9828 118.191 47.9559C118.47 46.9291 118.872 46.0617 119.395 45.3539C119.918 44.6411 120.549 44.0977 121.287 43.7239C122.029 43.35 122.859 43.1631 123.777 43.1631C124.739 43.1631 125.591 43.3525 126.334 43.7313C127.082 44.1102 127.685 44.6286 128.143 45.2866C128.602 45.9396 128.886 46.6773 128.996 47.4998H126.267C126.127 46.9116 125.84 46.443 125.407 46.0941C124.978 45.7402 124.435 45.5632 123.777 45.5632C122.715 45.5632 121.897 46.0243 121.324 46.9465C120.756 47.8687 120.469 49.1348 120.464 50.7449H120.569C120.813 50.3062 121.13 49.9299 121.519 49.6158C121.907 49.3018 122.346 49.06 122.835 48.8905C123.328 48.7161 123.849 48.6288 124.397 48.6288C125.294 48.6288 126.1 48.8432 126.812 49.2719C127.53 49.7006 128.098 50.2913 128.517 51.044C128.936 51.7917 129.143 52.649 129.138 53.6161C129.143 54.623 128.913 55.5277 128.45 56.3303C127.986 57.1278 127.341 57.7559 126.513 58.2145C125.686 58.6731 124.721 58.8999 123.62 58.8949ZM123.605 56.6518C124.148 56.6518 124.634 56.5197 125.063 56.2555C125.491 55.9913 125.83 55.6349 126.08 55.1863C126.329 54.7376 126.451 54.2342 126.446 53.6759C126.451 53.1276 126.331 52.6316 126.087 52.1879C125.848 51.7443 125.516 51.3929 125.093 51.1337C124.669 50.8745 124.185 50.7449 123.642 50.7449C123.238 50.7449 122.862 50.8221 122.513 50.9767C122.164 51.1312 121.86 51.3455 121.601 51.6197C121.342 51.8889 121.137 52.2029 120.988 52.5618C120.843 52.9157 120.768 53.2946 120.763 53.6983C120.768 54.2317 120.893 54.7227 121.137 55.1713C121.381 55.6199 121.718 55.9788 122.147 56.248C122.575 56.5172 123.061 56.6518 123.605 56.6518ZM139.852 55.8143V55.0068C139.852 54.4136 139.977 53.8678 140.226 53.3693C140.48 52.8709 140.849 52.4696 141.333 52.1655C141.816 51.8614 142.402 51.7094 143.09 51.7094C143.798 51.7094 144.391 51.8614 144.87 52.1655C145.348 52.4646 145.709 52.8634 145.954 53.3619C146.203 53.8603 146.328 54.4086 146.328 55.0068V55.8143C146.328 56.4075 146.203 56.9534 145.954 57.4518C145.704 57.9503 145.338 58.3516 144.855 58.6556C144.376 58.9597 143.788 59.1117 143.09 59.1117C142.392 59.1117 141.801 58.9597 141.318 58.6556C140.834 58.3516 140.468 57.9503 140.219 57.4518C139.975 56.9534 139.852 56.4075 139.852 55.8143ZM141.804 55.0068V55.8143C141.804 56.2081 141.899 56.5695 142.088 56.8985C142.277 57.2275 142.611 57.392 143.09 57.392C143.574 57.392 143.905 57.23 144.084 56.906C144.269 56.577 144.361 56.2131 144.361 55.8143V55.0068C144.361 54.608 144.274 54.2441 144.099 53.9152C143.925 53.5812 143.588 53.4142 143.09 53.4142C142.621 53.4142 142.29 53.5812 142.096 53.9152C141.901 54.2441 141.804 54.608 141.804 55.0068ZM132.069 47.0512V46.2437C132.069 45.6455 132.196 45.0972 132.45 44.5987C132.704 44.1002 133.073 43.7014 133.557 43.4024C134.04 43.0983 134.626 42.9463 135.314 42.9463C136.017 42.9463 136.607 43.0983 137.086 43.4024C137.569 43.7014 137.933 44.1002 138.178 44.5987C138.422 45.0972 138.544 45.6455 138.544 46.2437V47.0512C138.544 47.6493 138.419 48.1977 138.17 48.6961C137.926 49.1896 137.562 49.5859 137.078 49.885C136.595 50.1841 136.007 50.3336 135.314 50.3336C134.611 50.3336 134.018 50.1841 133.534 49.885C133.056 49.5859 132.692 49.1871 132.443 48.6887C132.193 48.1902 132.069 47.6444 132.069 47.0512ZM134.035 46.2437V47.0512C134.035 47.45 134.127 47.8138 134.312 48.1428C134.501 48.4668 134.835 48.6288 135.314 48.6288C135.792 48.6288 136.121 48.4668 136.301 48.1428C136.485 47.8138 136.577 47.45 136.577 47.0512V46.2437C136.577 45.8449 136.49 45.481 136.316 45.152C136.141 44.818 135.807 44.651 135.314 44.651C134.84 44.651 134.509 44.818 134.319 45.152C134.13 45.486 134.035 45.8499 134.035 46.2437ZM132.921 58.6855L143.449 43.3724H145.318L134.79 58.6855H132.921Z" fill="black"/>
<path d="M101.241 68.8478C101.191 68.3868 100.984 68.0279 100.618 67.7711C100.255 67.5142 99.7838 67.3858 99.2033 67.3858C98.7951 67.3858 98.445 67.4474 98.153 67.5705C97.8609 67.6937 97.6375 67.8608 97.4827 68.0719C97.3278 68.283 97.2487 68.5241 97.2451 68.795C97.2451 69.0202 97.2962 69.2155 97.3982 69.3809C97.5038 69.5462 97.6463 69.687 97.8257 69.8031C98.0052 69.9157 98.204 70.0107 98.4221 70.0881C98.6403 70.1655 98.8602 70.2306 99.0819 70.2834L100.095 70.5367C100.503 70.6317 100.896 70.7602 101.272 70.922C101.652 71.0839 101.992 71.288 102.291 71.5343C102.593 71.7806 102.833 72.0779 103.009 72.4262C103.185 72.7746 103.273 73.1827 103.273 73.6507C103.273 74.2841 103.111 74.8418 102.787 75.3238C102.463 75.8024 101.995 76.1771 101.383 76.448C100.774 76.7155 100.037 76.8492 99.1716 76.8492C98.3306 76.8492 97.6005 76.719 96.9812 76.4586C96.3655 76.1982 95.8834 75.8182 95.5351 75.3186C95.1903 74.8189 95.0038 74.2102 94.9756 73.4924H96.9021C96.9302 73.8689 97.0463 74.182 97.2504 74.4319C97.4545 74.6817 97.7202 74.8682 98.0474 74.9913C98.3781 75.1145 98.7476 75.1761 99.1558 75.1761C99.5815 75.1761 99.9545 75.1127 100.275 74.986C100.598 74.8559 100.852 74.6764 101.035 74.4477C101.218 74.2155 101.311 73.9445 101.314 73.6349C101.311 73.3534 101.228 73.1212 101.066 72.9382C100.905 72.7517 100.678 72.5969 100.386 72.4737C100.097 72.3471 99.7592 72.2345 99.3722 72.136L98.1424 71.8193C97.2522 71.5906 96.5485 71.244 96.0312 70.7795C95.5175 70.3115 95.2606 69.6905 95.2606 68.9164C95.2606 68.2795 95.433 67.7218 95.7779 67.2433C96.1262 66.7648 96.5995 66.3935 97.1976 66.1296C97.7958 65.8622 98.4732 65.7285 99.2297 65.7285C99.9967 65.7285 100.669 65.8622 101.246 66.1296C101.826 66.3935 102.282 66.7612 102.613 67.2327C102.944 67.7007 103.114 68.2391 103.125 68.8478H101.241ZM108.495 76.8439C107.686 76.8439 106.991 76.6662 106.41 76.3108C105.833 75.9554 105.388 75.4646 105.075 74.8383C104.765 74.2084 104.61 73.4836 104.61 72.6637C104.61 71.8404 104.769 71.1138 105.085 70.484C105.402 69.8506 105.849 69.358 106.426 69.0061C107.006 68.6507 107.693 68.4731 108.484 68.4731C109.142 68.4731 109.725 68.5944 110.231 68.8372C110.741 69.0765 111.148 69.416 111.45 69.8559C111.753 70.2922 111.925 70.8024 111.968 71.3865H110.142C110.068 70.9959 109.892 70.6704 109.614 70.4101C109.339 70.1462 108.972 70.0142 108.511 70.0142C108.12 70.0142 107.777 70.1198 107.481 70.3309C107.186 70.5385 106.955 70.8376 106.79 71.2281C106.628 71.6187 106.547 72.0867 106.547 72.6321C106.547 73.1845 106.628 73.6595 106.79 74.0571C106.952 74.4512 107.179 74.7556 107.471 74.9702C107.766 75.1813 108.113 75.2869 108.511 75.2869C108.792 75.2869 109.044 75.2341 109.265 75.1286C109.491 75.0195 109.679 74.8629 109.83 74.6588C109.981 74.4547 110.085 74.2067 110.142 73.9146H111.968C111.922 74.4882 111.753 74.9966 111.461 75.44C111.169 75.8798 110.771 76.2246 110.268 76.4744C109.765 76.7207 109.174 76.8439 108.495 76.8439ZM113.561 76.6855V68.5786H115.414V69.9298H115.498C115.646 69.4618 115.899 69.1011 116.258 68.8478C116.621 68.5909 117.034 68.4625 117.499 68.4625C117.604 68.4625 117.722 68.4678 117.852 68.4783C117.986 68.4854 118.097 68.4977 118.185 68.5153V70.2728C118.104 70.2447 117.975 70.2201 117.8 70.1989C117.627 70.1743 117.46 70.162 117.298 70.162C116.95 70.162 116.637 70.2376 116.359 70.3889C116.084 70.5367 115.868 70.7426 115.709 71.0065C115.551 71.2704 115.472 71.5747 115.472 71.9196V76.6855H113.561ZM122.734 76.8439C121.921 76.8439 121.219 76.675 120.628 76.3372C120.041 75.9959 119.588 75.5138 119.272 74.891C118.955 74.2647 118.797 73.5276 118.797 72.6796C118.797 71.8457 118.955 71.1138 119.272 70.484C119.592 69.8506 120.039 69.358 120.612 69.0061C121.186 68.6507 121.86 68.4731 122.634 68.4731C123.133 68.4731 123.605 68.554 124.048 68.7158C124.495 68.8742 124.889 69.1205 125.231 69.4548C125.575 69.789 125.846 70.2148 126.043 70.732C126.24 71.2457 126.339 71.858 126.339 72.5687V73.1546H119.694V71.8668H124.508C124.504 71.5008 124.425 71.1754 124.27 70.8904C124.115 70.6018 123.899 70.3749 123.621 70.2095C123.346 70.0441 123.026 69.9614 122.66 69.9614C122.27 69.9614 121.927 70.0564 121.631 70.2464C121.335 70.4329 121.105 70.6792 120.94 70.9854C120.778 71.288 120.695 71.6205 120.692 71.9829V73.1071C120.692 73.5786 120.778 73.9832 120.95 74.321C121.123 74.6553 121.364 74.9122 121.673 75.0916C121.983 75.2675 122.345 75.3555 122.761 75.3555C123.038 75.3555 123.29 75.3168 123.515 75.2394C123.74 75.1585 123.936 75.0406 124.101 74.8858C124.266 74.7309 124.391 74.5392 124.476 74.3105L126.26 74.511C126.147 74.9825 125.933 75.3942 125.616 75.7461C125.303 76.0944 124.902 76.3654 124.413 76.5589C123.923 76.7489 123.364 76.8439 122.734 76.8439ZM131.569 76.8439C130.756 76.8439 130.054 76.675 129.463 76.3372C128.876 75.9959 128.423 75.5138 128.107 74.891C127.79 74.2647 127.632 73.5276 127.632 72.6796C127.632 71.8457 127.79 71.1138 128.107 70.484C128.427 69.8506 128.874 69.358 129.447 69.0061C130.021 68.6507 130.695 68.4731 131.469 68.4731C131.968 68.4731 132.44 68.554 132.883 68.7158C133.33 68.8742 133.724 69.1205 134.066 69.4548C134.41 69.789 134.681 70.2148 134.878 70.732C135.075 71.2457 135.174 71.858 135.174 72.5687V73.1546H128.529V71.8668H133.343C133.339 71.5008 133.26 71.1754 133.105 70.8904C132.95 70.6018 132.734 70.3749 132.456 70.2095C132.181 70.0441 131.861 69.9614 131.495 69.9614C131.105 69.9614 130.762 70.0564 130.466 70.2464C130.17 70.4329 129.94 70.6792 129.775 70.9854C129.613 71.288 129.53 71.6205 129.527 71.9829V73.1071C129.527 73.5786 129.613 73.9832 129.785 74.321C129.958 74.6553 130.199 74.9122 130.508 75.0916C130.818 75.2675 131.18 75.3555 131.596 75.3555C131.873 75.3555 132.125 75.3168 132.35 75.2394C132.575 75.1585 132.771 75.0406 132.936 74.8858C133.101 74.7309 133.226 74.5392 133.311 74.3105L135.095 74.511C134.982 74.9825 134.768 75.3942 134.451 75.7461C134.138 76.0944 133.737 76.3654 133.248 76.5589C132.758 76.7489 132.199 76.8439 131.569 76.8439ZM138.726 71.9354V76.6855H136.815V68.5786H138.641V69.9562H138.736C138.923 69.5023 139.22 69.1416 139.628 68.8742C140.04 68.6068 140.548 68.4731 141.154 68.4731C141.713 68.4731 142.2 68.5927 142.616 68.832C143.034 69.0712 143.358 69.4178 143.587 69.8717C143.819 70.3256 143.933 70.8763 143.93 71.5237V76.6855H142.019V71.8193C142.019 71.2774 141.878 70.8534 141.597 70.5473C141.319 70.2412 140.934 70.0881 140.441 70.0881C140.107 70.0881 139.809 70.162 139.549 70.3098C139.292 70.454 139.09 70.6634 138.942 70.9379C138.798 71.2123 138.726 71.5448 138.726 71.9354ZM153.656 68.5786V70.0564H148.996V68.5786H153.656ZM150.147 66.6363H152.057V74.2471C152.057 74.504 152.096 74.701 152.173 74.8383C152.254 74.972 152.36 75.0635 152.49 75.1127C152.62 75.162 152.764 75.1866 152.923 75.1866C153.042 75.1866 153.152 75.1778 153.25 75.1602C153.352 75.1426 153.429 75.1268 153.482 75.1127L153.804 76.6064C153.702 76.6416 153.556 76.6803 153.366 76.7225C153.18 76.7647 152.951 76.7893 152.68 76.7964C152.201 76.8105 151.77 76.7383 151.387 76.58C151.003 76.4181 150.699 76.1683 150.474 75.8305C150.252 75.4927 150.143 75.0705 150.147 74.5638V66.6363ZM155.279 76.6855V68.5786H157.19V76.6855H155.279ZM156.24 67.428C155.937 67.428 155.677 67.3277 155.459 67.1272C155.24 66.9231 155.131 66.6785 155.131 66.3935C155.131 66.105 155.24 65.8605 155.459 65.6599C155.677 65.4558 155.937 65.3538 156.24 65.3538C156.546 65.3538 156.806 65.4558 157.021 65.6599C157.239 65.8605 157.348 66.105 157.348 66.3935C157.348 66.6785 157.239 66.9231 157.021 67.1272C156.806 67.3277 156.546 67.428 156.24 67.428ZM159.179 76.6855V68.5786H161.005V69.9562H161.1C161.269 69.4917 161.549 69.1293 161.94 68.8689C162.33 68.605 162.796 68.4731 163.338 68.4731C163.887 68.4731 164.35 68.6068 164.726 68.8742C165.106 69.1381 165.374 69.4987 165.529 69.9562H165.613C165.793 69.5058 166.095 69.1469 166.521 68.8795C166.95 68.6085 167.459 68.4731 168.046 68.4731C168.792 68.4731 169.401 68.7088 169.872 69.1803C170.344 69.6518 170.58 70.3397 170.58 71.244V76.6855H168.664V71.5395C168.664 71.0364 168.53 70.6687 168.263 70.4365C167.995 70.2007 167.668 70.0828 167.281 70.0828C166.82 70.0828 166.459 70.2271 166.199 70.5156C165.942 70.8006 165.814 71.1718 165.814 71.6293V76.6855H163.94V71.4604C163.94 71.0417 163.813 70.7074 163.56 70.4576C163.31 70.2077 162.983 70.0828 162.578 70.0828C162.304 70.0828 162.054 70.1532 161.829 70.2939C161.604 70.4312 161.424 70.6265 161.29 70.8798C161.157 71.1296 161.09 71.4217 161.09 71.7559V76.6855H159.179ZM176.132 76.8439C175.319 76.8439 174.617 76.675 174.026 76.3372C173.438 75.9959 172.986 75.5138 172.669 74.891C172.353 74.2647 172.194 73.5276 172.194 72.6796C172.194 71.8457 172.353 71.1138 172.669 70.484C172.99 69.8506 173.436 69.358 174.01 69.0061C174.584 68.6507 175.257 68.4731 176.031 68.4731C176.531 68.4731 177.003 68.554 177.446 68.7158C177.893 68.8742 178.287 69.1205 178.628 69.4548C178.973 69.789 179.244 70.2148 179.441 70.732C179.638 71.2457 179.737 71.858 179.737 72.5687V73.1546H173.092V71.8668H177.905C177.902 71.5008 177.822 71.1754 177.668 70.8904C177.513 70.6018 177.296 70.3749 177.018 70.2095C176.744 70.0441 176.424 69.9614 176.058 69.9614C175.667 69.9614 175.324 70.0564 175.029 70.2464C174.733 70.4329 174.503 70.6792 174.337 70.9854C174.175 71.288 174.093 71.6205 174.089 71.9829V73.1071C174.089 73.5786 174.175 73.9832 174.348 74.321C174.52 74.6553 174.761 74.9122 175.071 75.0916C175.38 75.2675 175.743 75.3555 176.158 75.3555C176.436 75.3555 176.688 75.3168 176.913 75.2394C177.138 75.1585 177.333 75.0406 177.499 74.8858C177.664 74.7309 177.789 74.5392 177.873 74.3105L179.657 74.511C179.545 74.9825 179.33 75.3942 179.013 75.7461C178.7 76.0944 178.299 76.3654 177.81 76.5589C177.321 76.7489 176.762 76.8439 176.132 76.8439Z" fill="#9098A3"/>
</g>
<defs>
<filter id="filter0_dd_21_1247" x="0.169443" y="0.528818" width="236.565" height="122.618" filterUnits="userSpaceOnUse" color-interpolation-filters="sRGB">
<feFlood flood-opacity="0" result="BackgroundImageFix"/>
<feColorMatrix in="SourceAlpha" type="matrix" values="0 0 0 0 0 0 0 0 0 0 0 0 0 0 0 0 0 0 127 0" result="hardAlpha"/>
<feOffset dx="2.47712" dy="2.47712"/>
<feGaussianBlur stdDeviation="9.2892"/>
<feColorMatrix type="matrix" values="0 0 0 0 0.6512 0 0 0 0 0.66896 0 0 0 0 0.74 0 0 0 0.5 0"/>
<feBlend mode="normal" in2="BackgroundImageFix" result="effect1_dropShadow_21_1247"/>
<feColorMatrix in="SourceAlpha" type="matrix" values="0 0 0 0 0 0 0 0 0 0 0 0 0 0 0 0 0 0 127 0" result="hardAlpha"/>
<feOffset dx="-1.23856" dy="-1.23856"/>
<feGaussianBlur stdDeviation="8.05064"/>
<feColorMatrix type="matrix" values="0 0 0 0 0.979167 0 0 0 0 0.983333 0 0 0 0 1 0 0 0 1 0"/>
<feBlend mode="normal" in2="effect1_dropShadow_21_1247" result="effect2_dropShadow_21_1247"/>
<feBlend mode="normal" in="SourceGraphic" in2="effect2_dropShadow_21_1247" result="shape"/>
</filter>
<linearGradient id="paint0_linear_21_1247" x1="77.3023" y1="63.5396" x2="39.0227" y2="63.5396" gradientUnits="userSpaceOnUse">
<stop stop-color="#2395FF"/>
<stop offset="0.159669" stop-color="#2395FF"/>
<stop offset="0.268196" stop-color="#2395FF"/>
<stop offset="0.658066" stop-color="#2395FF"/>
<stop offset="0.804268" stop-color="#2395FF"/>
<stop offset="1" stop-color="#2395FF"/>
</linearGradient>
<linearGradient id="paint1_linear_21_1247" x1="54.17" y1="59.125" x2="63.97" y2="59.125" gradientUnits="userSpaceOnUse">
<stop stop-color="#2395FF"/>
<stop offset="0.395833" stop-color="#2395FF"/>
<stop offset="1" stop-color="#2395FF"/>
</linearGradient>
<linearGradient id="paint2_linear_21_1247" x1="54.17" y1="59.125" x2="63.97" y2="59.125" gradientUnits="userSpaceOnUse">
<stop stop-color="white"/>
<stop offset="0.395833" stop-color="#2395FF"/>
<stop offset="1" stop-color="#2FEA9B"/>
</linearGradient>
</defs>
</svg>
