<svg width="235" height="124" viewBox="0 0 235 124" fill="none" xmlns="http://www.w3.org/2000/svg">
<g filter="url(#filter0_dd_21_1319)">
<rect x="15.2385" y="17.8687" width="197.952" height="84.2221" rx="24.7712" fill="white"/>
<path d="M98.8858 58.8949C97.8091 58.8949 96.852 58.7105 96.0146 58.3416C95.1821 57.9727 94.5242 57.4593 94.0406 56.8013C93.5571 56.1433 93.3004 55.3832 93.2705 54.5208H96.0819C96.1068 54.9345 96.2439 55.2959 96.4931 55.605C96.7424 55.9091 97.0738 56.1458 97.4876 56.3153C97.9013 56.4848 98.3649 56.5695 98.8783 56.5695C99.4266 56.5695 99.9127 56.4748 100.336 56.2854C100.76 56.091 101.092 55.8218 101.331 55.4779C101.57 55.1339 101.687 54.7376 101.682 54.289C101.687 53.8254 101.568 53.4167 101.323 53.0628C101.079 52.7089 100.725 52.4322 100.262 52.2328C99.803 52.0334 99.2497 51.9337 98.6017 51.9337H97.2483V49.7953H98.6017C99.135 49.7953 99.6011 49.7031 99.9999 49.5186C100.404 49.3342 100.72 49.075 100.949 48.741C101.179 48.402 101.291 48.0107 101.286 47.5671C101.291 47.1334 101.194 46.7571 100.994 46.4381C100.8 46.114 100.523 45.8623 100.164 45.6829C99.8105 45.5034 99.3942 45.4137 98.9157 45.4137C98.4471 45.4137 98.0135 45.4984 97.6147 45.6679C97.2159 45.8374 96.8944 46.0792 96.6501 46.3932C96.4059 46.7022 96.2763 47.0711 96.2613 47.4998H93.592C93.6119 46.6424 93.8587 45.8897 94.3322 45.2417C94.8108 44.5887 95.4488 44.0803 96.2464 43.7164C97.0439 43.3475 97.9387 43.1631 98.9307 43.1631C99.9525 43.1631 100.84 43.355 101.593 43.7388C102.35 44.1177 102.936 44.6286 103.35 45.2716C103.763 45.9147 103.97 46.625 103.97 47.4026C103.975 48.265 103.721 48.9877 103.208 49.571C102.699 50.1542 102.031 50.5355 101.204 50.715V50.8346C102.28 50.9841 103.105 51.3829 103.679 52.0309C104.257 52.674 104.543 53.474 104.538 54.4311C104.538 55.2885 104.294 56.0561 103.806 56.734C103.322 57.407 102.654 57.9353 101.802 58.3192C100.954 58.703 99.9824 58.8949 98.8858 58.8949ZM112.601 58.8949C111.524 58.8949 110.567 58.7105 109.729 58.3416C108.897 57.9727 108.239 57.4593 107.756 56.8013C107.272 56.1433 107.015 55.3832 106.985 54.5208H109.797C109.822 54.9345 109.959 55.2959 110.208 55.605C110.457 55.9091 110.789 56.1458 111.202 56.3153C111.616 56.4848 112.08 56.5695 112.593 56.5695C113.142 56.5695 113.628 56.4748 114.051 56.2854C114.475 56.091 114.806 55.8218 115.046 55.4779C115.285 55.1339 115.402 54.7376 115.397 54.289C115.402 53.8254 115.282 53.4167 115.038 53.0628C114.794 52.7089 114.44 52.4322 113.976 52.2328C113.518 52.0334 112.965 51.9337 112.317 51.9337H110.963V49.7953H112.317C112.85 49.7953 113.316 49.7031 113.715 49.5186C114.119 49.3342 114.435 49.075 114.664 48.741C114.894 48.402 115.006 48.0107 115.001 47.5671C115.006 47.1334 114.909 46.7571 114.709 46.4381C114.515 46.114 114.238 45.8623 113.879 45.6829C113.525 45.5034 113.109 45.4137 112.631 45.4137C112.162 45.4137 111.728 45.4984 111.33 45.6679C110.931 45.8374 110.609 46.0792 110.365 46.3932C110.121 46.7022 109.991 47.0711 109.976 47.4998H107.307C107.327 46.6424 107.574 45.8897 108.047 45.2417C108.526 44.5887 109.164 44.0803 109.961 43.7164C110.759 43.3475 111.654 43.1631 112.646 43.1631C113.667 43.1631 114.555 43.355 115.307 43.7388C116.065 44.1177 116.651 44.6286 117.064 45.2716C117.478 45.9147 117.685 46.625 117.685 47.4026C117.69 48.265 117.436 48.9877 116.922 49.571C116.414 50.1542 115.746 50.5355 114.919 50.715V50.8346C115.995 50.9841 116.82 51.3829 117.393 52.0309C117.972 52.674 118.258 53.474 118.253 54.4311C118.253 55.2885 118.009 56.0561 117.521 56.734C117.037 57.407 116.369 57.9353 115.517 58.3192C114.669 58.703 113.697 58.8949 112.601 58.8949ZM129.007 55.8143V55.0068C129.007 54.4136 129.132 53.8678 129.381 53.3693C129.635 52.8709 130.004 52.4696 130.488 52.1655C130.971 51.8614 131.557 51.7094 132.245 51.7094C132.953 51.7094 133.546 51.8614 134.024 52.1655C134.503 52.4646 134.864 52.8634 135.109 53.3619C135.358 53.8603 135.482 54.4086 135.482 55.0068V55.8143C135.482 56.4075 135.358 56.9534 135.109 57.4518C134.859 57.9503 134.493 58.3516 134.009 58.6556C133.531 58.9597 132.943 59.1117 132.245 59.1117C131.547 59.1117 130.956 58.9597 130.473 58.6556C129.989 58.3516 129.623 57.9503 129.374 57.4518C129.129 56.9534 129.007 56.4075 129.007 55.8143ZM130.959 55.0068V55.8143C130.959 56.2081 131.054 56.5695 131.243 56.8985C131.432 57.2275 131.766 57.392 132.245 57.392C132.728 57.392 133.06 57.23 133.239 56.906C133.424 56.577 133.516 56.2131 133.516 55.8143V55.0068C133.516 54.608 133.429 54.2441 133.254 53.9152C133.08 53.5812 132.743 53.4142 132.245 53.4142C131.776 53.4142 131.445 53.5812 131.25 53.9152C131.056 54.2441 130.959 54.608 130.959 55.0068ZM121.224 47.0512V46.2437C121.224 45.6455 121.351 45.0972 121.605 44.5987C121.859 44.1002 122.228 43.7014 122.712 43.4024C123.195 43.0983 123.781 42.9463 124.469 42.9463C125.172 42.9463 125.762 43.0983 126.241 43.4024C126.724 43.7014 127.088 44.1002 127.332 44.5987C127.577 45.0972 127.699 45.6455 127.699 46.2437V47.0512C127.699 47.6493 127.574 48.1977 127.325 48.6961C127.081 49.1896 126.717 49.5859 126.233 49.885C125.75 50.1841 125.162 50.3336 124.469 50.3336C123.766 50.3336 123.173 50.1841 122.689 49.885C122.211 49.5859 121.847 49.1871 121.597 48.6887C121.348 48.1902 121.224 47.6444 121.224 47.0512ZM123.19 46.2437V47.0512C123.19 47.45 123.282 47.8138 123.467 48.1428C123.656 48.4668 123.99 48.6288 124.469 48.6288C124.947 48.6288 125.276 48.4668 125.456 48.1428C125.64 47.8138 125.732 47.45 125.732 47.0512V46.2437C125.732 45.8449 125.645 45.481 125.471 45.152C125.296 44.818 124.962 44.651 124.469 44.651C123.995 44.651 123.664 44.818 123.474 45.152C123.285 45.486 123.19 45.8499 123.19 46.2437ZM122.076 58.6855L132.604 43.3724H134.473L123.945 58.6855H122.076Z" fill="black"/>
<path d="M95.0536 65.8763V76.6855H93.0954V65.8763H95.0536ZM97.1143 76.6855V68.5786H98.9405V69.9562H99.0355C99.2044 69.4917 99.4841 69.1293 99.8747 68.8689C100.265 68.605 100.731 68.4731 101.273 68.4731C101.822 68.4731 102.285 68.6068 102.661 68.8742C103.041 69.1381 103.309 69.4987 103.464 69.9562H103.548C103.728 69.5058 104.03 69.1469 104.456 68.8795C104.885 68.6085 105.394 68.4731 105.981 68.4731C106.727 68.4731 107.336 68.7088 107.807 69.1803C108.279 69.6518 108.515 70.3397 108.515 71.244V76.6855H106.599V71.5395C106.599 71.0364 106.465 70.6687 106.198 70.4365C105.93 70.2007 105.603 70.0828 105.216 70.0828C104.755 70.0828 104.394 70.2271 104.134 70.5156C103.877 70.8006 103.749 71.1718 103.749 71.6293V76.6855H101.875V71.4604C101.875 71.0417 101.748 70.7074 101.495 70.4576C101.245 70.2077 100.918 70.0828 100.513 70.0828C100.239 70.0828 99.989 70.1532 99.7638 70.2939C99.5386 70.4312 99.3592 70.6265 99.2255 70.8798C99.0918 71.1296 99.0249 71.4217 99.0249 71.7559V76.6855H97.1143ZM110.478 79.7256V68.5786H112.357V69.9192H112.468C112.566 69.7222 112.705 69.5128 112.885 69.2911C113.064 69.0659 113.307 68.8742 113.613 68.7158C113.919 68.554 114.31 68.4731 114.785 68.4731C115.411 68.4731 115.976 68.6332 116.479 68.9533C116.985 69.27 117.387 69.7398 117.682 70.3626C117.981 70.9818 118.131 71.7419 118.131 72.6426C118.131 73.5328 117.985 74.2894 117.693 74.9122C117.401 75.535 117.003 76.01 116.5 76.3372C115.997 76.6644 115.427 76.8281 114.79 76.8281C114.325 76.8281 113.94 76.7506 113.634 76.5958C113.328 76.441 113.082 76.2545 112.895 76.0364C112.712 75.8147 112.57 75.6053 112.468 75.4083H112.388V79.7256H110.478ZM112.351 72.6321C112.351 73.1564 112.425 73.6155 112.573 74.0096C112.724 74.4037 112.941 74.7116 113.222 74.9333C113.507 75.1514 113.852 75.2605 114.257 75.2605C114.679 75.2605 115.033 75.1479 115.318 74.9227C115.603 74.694 115.817 74.3826 115.962 73.9885C116.109 73.5909 116.183 73.1388 116.183 72.6321C116.183 72.1289 116.111 71.682 115.967 71.2915C115.823 70.9009 115.608 70.5948 115.323 70.3731C115.038 70.1514 114.683 70.0406 114.257 70.0406C113.849 70.0406 113.502 70.1479 113.217 70.3626C112.932 70.5772 112.716 70.878 112.568 71.2651C112.424 71.6521 112.351 72.1078 112.351 72.6321ZM119.792 76.6855V68.5786H121.644V69.9298H121.729C121.877 69.4618 122.13 69.1011 122.489 68.8478C122.851 68.5909 123.265 68.4625 123.729 68.4625C123.835 68.4625 123.953 68.4678 124.083 68.4783C124.216 68.4854 124.327 68.4977 124.415 68.5153V70.2728C124.334 70.2447 124.206 70.2201 124.03 70.1989C123.858 70.1743 123.69 70.162 123.529 70.162C123.18 70.162 122.867 70.2376 122.589 70.3889C122.315 70.5367 122.098 70.7426 121.94 71.0065C121.782 71.2704 121.702 71.5747 121.702 71.9196V76.6855H119.792ZM128.912 76.8439C128.12 76.8439 127.434 76.6697 126.853 76.3214C126.273 75.973 125.822 75.4857 125.502 74.8594C125.186 74.2331 125.027 73.5012 125.027 72.6637C125.027 71.8263 125.186 71.0927 125.502 70.4628C125.822 69.833 126.273 69.3439 126.853 68.9956C127.434 68.6472 128.12 68.4731 128.912 68.4731C129.703 68.4731 130.39 68.6472 130.97 68.9956C131.551 69.3439 131.999 69.833 132.316 70.4628C132.636 71.0927 132.796 71.8263 132.796 72.6637C132.796 73.5012 132.636 74.2331 132.316 74.8594C131.999 75.4857 131.551 75.973 130.97 76.3214C130.39 76.6697 129.703 76.8439 128.912 76.8439ZM128.922 75.3133C129.352 75.3133 129.71 75.1954 129.999 74.9597C130.288 74.7204 130.502 74.4002 130.643 73.9991C130.787 73.5979 130.859 73.1511 130.859 72.6585C130.859 72.1623 130.787 71.7137 130.643 71.3126C130.502 70.9079 130.288 70.586 129.999 70.3467C129.71 70.1075 129.352 69.9878 128.922 69.9878C128.482 69.9878 128.117 70.1075 127.824 70.3467C127.536 70.586 127.32 70.9079 127.175 71.3126C127.035 71.7137 126.964 72.1623 126.964 72.6585C126.964 73.1511 127.035 73.5979 127.175 73.9991C127.32 74.4002 127.536 74.7204 127.824 74.9597C128.117 75.1954 128.482 75.3133 128.922 75.3133ZM141.408 68.5786L138.521 76.6855H136.41L133.523 68.5786H135.56L137.423 74.6008H137.508L139.376 68.5786H141.408ZM146.068 76.8439C145.256 76.8439 144.554 76.675 143.963 76.3372C143.375 75.9959 142.923 75.5138 142.606 74.891C142.289 74.2647 142.131 73.5276 142.131 72.6796C142.131 71.8457 142.289 71.1138 142.606 70.484C142.926 69.8506 143.373 69.358 143.947 69.0061C144.52 68.6507 145.194 68.4731 145.968 68.4731C146.468 68.4731 146.939 68.554 147.383 68.7158C147.83 68.8742 148.224 69.1205 148.565 69.4548C148.91 69.789 149.181 70.2148 149.378 70.732C149.575 71.2457 149.673 71.858 149.673 72.5687V73.1546H143.028V71.8668H147.842C147.838 71.5008 147.759 71.1754 147.604 70.8904C147.45 70.6018 147.233 70.3749 146.955 70.2095C146.681 70.0441 146.361 69.9614 145.995 69.9614C145.604 69.9614 145.261 70.0564 144.965 70.2464C144.67 70.4329 144.439 70.6792 144.274 70.9854C144.112 71.288 144.029 71.6205 144.026 71.9829V73.1071C144.026 73.5786 144.112 73.9832 144.285 74.321C144.457 74.6553 144.698 74.9122 145.008 75.0916C145.317 75.2675 145.68 75.3555 146.095 75.3555C146.373 75.3555 146.624 75.3168 146.85 75.2394C147.075 75.1585 147.27 75.0406 147.435 74.8858C147.601 74.7309 147.726 74.5392 147.81 74.3105L149.594 74.511C149.482 74.9825 149.267 75.3942 148.95 75.7461C148.637 76.0944 148.236 76.3654 147.747 76.5589C147.258 76.7489 146.698 76.8439 146.068 76.8439ZM151.314 76.6855V68.5786H153.141V69.9562H153.236C153.405 69.4917 153.684 69.1293 154.075 68.8689C154.465 68.605 154.932 68.4731 155.473 68.4731C156.022 68.4731 156.485 68.6068 156.862 68.8742C157.242 69.1381 157.509 69.4987 157.664 69.9562H157.748C157.928 69.5058 158.23 69.1469 158.656 68.8795C159.085 68.6085 159.594 68.4731 160.181 68.4731C160.927 68.4731 161.536 68.7088 162.008 69.1803C162.479 69.6518 162.715 70.3397 162.715 71.244V76.6855H160.799V71.5395C160.799 71.0364 160.665 70.6687 160.398 70.4365C160.13 70.2007 159.803 70.0828 159.416 70.0828C158.955 70.0828 158.595 70.2271 158.334 70.5156C158.077 70.8006 157.949 71.1718 157.949 71.6293V76.6855H156.075V71.4604C156.075 71.0417 155.948 70.7074 155.695 70.4576C155.445 70.2077 155.118 70.0828 154.713 70.0828C154.439 70.0828 154.189 70.1532 153.964 70.2939C153.739 70.4312 153.559 70.6265 153.426 70.8798C153.292 71.1296 153.225 71.4217 153.225 71.7559V76.6855H151.314ZM168.267 76.8439C167.454 76.8439 166.752 76.675 166.161 76.3372C165.573 75.9959 165.121 75.5138 164.805 74.891C164.488 74.2647 164.33 73.5276 164.33 72.6796C164.33 71.8457 164.488 71.1138 164.805 70.484C165.125 69.8506 165.572 69.358 166.145 69.0061C166.719 68.6507 167.393 68.4731 168.167 68.4731C168.666 68.4731 169.138 68.554 169.581 68.7158C170.028 68.8742 170.422 69.1205 170.763 69.4548C171.108 69.789 171.379 70.2148 171.576 70.732C171.773 71.2457 171.872 71.858 171.872 72.5687V73.1546H165.227V71.8668H170.04C170.037 71.5008 169.958 71.1754 169.803 70.8904C169.648 70.6018 169.432 70.3749 169.154 70.2095C168.879 70.0441 168.559 69.9614 168.193 69.9614C167.802 69.9614 167.459 70.0564 167.164 70.2464C166.868 70.4329 166.638 70.6792 166.472 70.9854C166.311 71.288 166.228 71.6205 166.224 71.9829V73.1071C166.224 73.5786 166.311 73.9832 166.483 74.321C166.655 74.6553 166.896 74.9122 167.206 75.0916C167.516 75.2675 167.878 75.3555 168.293 75.3555C168.571 75.3555 168.823 75.3168 169.048 75.2394C169.273 75.1585 169.469 75.0406 169.634 74.8858C169.799 74.7309 169.924 74.5392 170.009 74.3105L171.793 74.511C171.68 74.9825 171.465 75.3942 171.149 75.7461C170.836 76.0944 170.434 76.3654 169.945 76.5589C169.456 76.7489 168.897 76.8439 168.267 76.8439ZM175.424 71.9354V76.6855H173.513V68.5786H175.339V69.9562H175.434C175.621 69.5023 175.918 69.1416 176.326 68.8742C176.738 68.6068 177.246 68.4731 177.851 68.4731C178.411 68.4731 178.898 68.5927 179.313 68.832C179.732 69.0712 180.056 69.4178 180.285 69.8717C180.517 70.3256 180.631 70.8763 180.628 71.5237V76.6855H178.717V71.8193C178.717 71.2774 178.576 70.8534 178.295 70.5473C178.017 70.2412 177.631 70.0881 177.139 70.0881C176.805 70.0881 176.507 70.162 176.247 70.3098C175.99 70.454 175.788 70.6634 175.64 70.9379C175.496 71.2123 175.424 71.5448 175.424 71.9354ZM186.643 68.5786V70.0564H181.982V68.5786H186.643ZM183.133 66.6363H185.044V74.2471C185.044 74.504 185.082 74.701 185.16 74.8383C185.241 74.972 185.346 75.0635 185.476 75.1127C185.607 75.162 185.751 75.1866 185.909 75.1866C186.029 75.1866 186.138 75.1778 186.236 75.1602C186.338 75.1426 186.416 75.1268 186.469 75.1127L186.791 76.6064C186.689 76.6416 186.543 76.6803 186.353 76.7225C186.166 76.7647 185.937 76.7893 185.666 76.7964C185.188 76.8105 184.757 76.7383 184.373 76.58C183.99 76.4181 183.685 76.1683 183.46 75.8305C183.239 75.4927 183.129 75.0705 183.133 74.5638V66.6363Z" fill="#9098A3"/>
<circle cx="57.6841" cy="59.98" r="17.3398" fill="url(#paint0_linear_21_1319)" fill-opacity="0.15"/>
<path d="M53.4243 64.4596L49.4796 60.4484C49.2672 60.2319 48.9789 60.1102 48.6782 60.1102C48.3775 60.1102 48.0891 60.2319 47.8767 60.4484C47.4334 60.8992 47.4334 61.6275 47.8767 62.0783L52.6286 66.9103C53.0719 67.3612 53.7881 67.3612 54.2315 66.9103L66.2589 54.68C66.7023 54.2291 66.7023 53.5009 66.2589 53.05C66.0466 52.8336 65.7582 52.7119 65.4575 52.7119C65.1568 52.7119 64.8684 52.8336 64.656 53.05L53.4243 64.4596Z" fill="url(#paint1_linear_21_1319)" stroke="url(#paint2_linear_21_1319)" stroke-width="1.23856"/>
</g>
<defs>
<filter id="filter0_dd_21_1319" x="-2.10131" y="0.528818" width="236.347" height="122.618" filterUnits="userSpaceOnUse" color-interpolation-filters="sRGB">
<feFlood flood-opacity="0" result="BackgroundImageFix"/>
<feColorMatrix in="SourceAlpha" type="matrix" values="0 0 0 0 0 0 0 0 0 0 0 0 0 0 0 0 0 0 127 0" result="hardAlpha"/>
<feOffset dx="2.47712" dy="2.47712"/>
<feGaussianBlur stdDeviation="9.2892"/>
<feColorMatrix type="matrix" values="0 0 0 0 0.6512 0 0 0 0 0.66896 0 0 0 0 0.74 0 0 0 0.5 0"/>
<feBlend mode="normal" in2="BackgroundImageFix" result="effect1_dropShadow_21_1319"/>
<feColorMatrix in="SourceAlpha" type="matrix" values="0 0 0 0 0 0 0 0 0 0 0 0 0 0 0 0 0 0 127 0" result="hardAlpha"/>
<feOffset dx="-1.23856" dy="-1.23856"/>
<feGaussianBlur stdDeviation="8.05064"/>
<feColorMatrix type="matrix" values="0 0 0 0 0.979167 0 0 0 0 0.983333 0 0 0 0 1 0 0 0 1 0"/>
<feBlend mode="normal" in2="effect1_dropShadow_21_1319" result="effect2_dropShadow_21_1319"/>
<feBlend mode="normal" in="SourceGraphic" in2="effect2_dropShadow_21_1319" result="shape"/>
</filter>
<linearGradient id="paint0_linear_21_1319" x1="69.6486" y1="61.4249" x2="45.3728" y2="61.4249" gradientUnits="userSpaceOnUse">
<stop stop-color="#2FEA9B"/>
<stop offset="1" stop-color="#7FDD53"/>
</linearGradient>
<linearGradient id="paint1_linear_21_1319" x1="63.6391" y1="60.5859" x2="50.306" y2="60.5859" gradientUnits="userSpaceOnUse">
<stop stop-color="#2FEA9B"/>
<stop offset="1" stop-color="#7FDD53"/>
</linearGradient>
<linearGradient id="paint2_linear_21_1319" x1="63.6391" y1="60.5859" x2="50.306" y2="60.5859" gradientUnits="userSpaceOnUse">
<stop stop-color="#2FEA9B"/>
<stop offset="1" stop-color="#7FDD53"/>
</linearGradient>
</defs>
</svg>
