<svg width="443" height="124" viewBox="0 0 443 124" fill="none" xmlns="http://www.w3.org/2000/svg">
<g filter="url(#filter0_dd_21_1201)">
    <defs>
        <filter id="filter0_dd_21_1201" x="-2.10131" y="0.444346" width="450.618" height="122.618" filterUnits="userSpaceOnUse" color-interpolation-filters="sRGB">
            <feFlood flood-opacity="0" result="BackgroundImageFix"/>
            <feColorMatrix in="SourceAlpha" type="matrix" values="0 0 0 0 0 0 0 0 0 0 0 0 0 0 0 0 0 0 127 0" result="hardAlpha"/>
            <feOffset dx="2.47712" dy="2.47712"/>
            <feGaussianBlur stdDeviation="9.2892"/>
            <feColorMatrix type="matrix" values="0 0 0 0 0.6512 0 0 0 0 0.66896 0 0 0 0 0.74 0 0 0 0.5 0"/>
            <feBlend mode="normal" in2="BackgroundImageFix" result="effect1_dropShadow_21_1201"/>
            <feColorMatrix in="SourceAlpha" type="matrix" values="0 0 0 0 0 0 0 0 0 0 0 0 0 0 0 0 0 0 127 0" result="hardAlpha"/>
            <feOffset dx="-1.23856" dy="-1.23856"/>
            <feGaussianBlur stdDeviation="8.05064"/>
            <feColorMatrix type="matrix" values="0 0 0 0 0.979167 0 0 0 0 0.983333 0 0 0 0 1 0 0 0 1 0"/>
            <feBlend mode="normal" in2="effect1_dropShadow_21_1201" result="effect2_dropShadow_21_1201"/>
            <feBlend mode="normal" in="SourceGraphic" in2="effect2_dropShadow_21_1201" result="shape"/>
        </filter>
        <linearGradient id="paint0_linear_21_1201" x1="40.6405" y1="42.5552" x2="66.6422" y2="77.2623" gradientUnits="userSpaceOnUse">
            <stop stop-color="#FFBF1A"/>
            <stop offset="1" stop-color="#FF4080"/>
        </linearGradient>
        <linearGradient id="paint1_linear_21_1201" x1="48.9255" y1="48.8604" x2="65.5532" y2="61.543" gradientUnits="userSpaceOnUse">
            <stop stop-color="#FFBF1A"/>
            <stop offset="1" stop-color="#FF4080"/>
        </linearGradient>
        <linearGradient id="paint2_linear_21_1201" x1="266.666" y1="52.4634" x2="266.666" y2="67.3261" gradientUnits="userSpaceOnUse">
            <stop stop-color="#967CFD"/>
            <stop offset="1" stop-color="#3177FF"/>
        </linearGradient>
        <linearGradient id="paint3_linear_21_1201" x1="248.705" y1="68.5177" x2="282.687" y2="68.5177" gradientUnits="userSpaceOnUse">
            <stop stop-color="#967CFD"/>
            <stop offset="1" stop-color="#3177FF"/>
        </linearGradient>
        <clipPath id="clip0_21_1201">
            <rect width="19.817" height="19.817" fill="white" transform="translate(256.758 49.9868)"/>
        </clipPath>
    </defs>

    <rect x="15.2385" y="17.7842" width="198.17" height="84.2221" rx="24.7712" fill="white"/>
<path d="M99.6186 43.288V58.6011H96.8445V45.9872H96.7548L93.1733 48.2752V45.733L96.9791 43.288H99.6186ZM109.167 58.8927C107.936 58.8927 106.879 58.5811 105.997 57.958C105.119 57.33 104.444 56.4252 103.97 55.2439C103.502 54.0575 103.267 52.6294 103.267 50.9595C103.272 49.2896 103.509 47.8689 103.978 46.6975C104.451 45.5211 105.127 44.6239 106.004 44.0058C106.886 43.3877 107.941 43.0786 109.167 43.0786C110.393 43.0786 111.447 43.3877 112.33 44.0058C113.212 44.6239 113.887 45.5211 114.356 46.6975C114.829 47.8739 115.066 49.2946 115.066 50.9595C115.066 52.6343 114.829 54.065 114.356 55.2513C113.887 56.4327 113.212 57.335 112.33 57.958C111.452 58.5811 110.398 58.8927 109.167 58.8927ZM109.167 56.5523C110.124 56.5523 110.879 56.0813 111.432 55.1392C111.991 54.1921 112.27 52.7988 112.27 50.9595C112.27 49.7432 112.143 48.7213 111.888 47.8939C111.634 47.0664 111.275 46.4433 110.812 46.0246C110.348 45.6009 109.8 45.389 109.167 45.389C108.215 45.389 107.462 45.8626 106.909 46.8097C106.355 47.7518 106.076 49.1351 106.071 50.9595C106.066 52.1807 106.188 53.2076 106.438 54.04C106.692 54.8725 107.051 55.5006 107.514 55.9243C107.978 56.343 108.529 56.5523 109.167 56.5523ZM122.874 58.8104C121.877 58.8104 120.985 58.6235 120.197 58.2497C119.41 57.8708 118.784 57.3524 118.321 56.6944C117.862 56.0364 117.618 55.2837 117.588 54.4363H120.28C120.329 55.0644 120.601 55.5778 121.095 55.9766C121.588 56.3704 122.181 56.5673 122.874 56.5673C123.418 56.5673 123.901 56.4427 124.325 56.1934C124.748 55.9442 125.082 55.5978 125.327 55.1541C125.571 54.7105 125.691 54.2045 125.686 53.6363C125.691 53.0581 125.568 52.5446 125.319 52.096C125.07 51.6474 124.729 51.2959 124.295 51.0417C123.861 50.7825 123.363 50.6529 122.799 50.6529C122.341 50.6479 121.89 50.7327 121.446 50.9071C121.002 51.0816 120.651 51.3109 120.392 51.595L117.887 51.1838L118.687 43.288H127.57V45.6059H120.982L120.541 49.6659H120.631C120.915 49.332 121.316 49.0553 121.835 48.836C122.353 48.6117 122.922 48.4995 123.54 48.4995C124.467 48.4995 125.294 48.7188 126.022 49.1575C126.75 49.5912 127.323 50.1893 127.742 50.952C128.161 51.7147 128.37 52.587 128.37 53.569C128.37 54.5809 128.136 55.4831 127.667 56.2757C127.203 57.0633 126.558 57.6839 125.73 58.1375C124.908 58.5861 123.956 58.8104 122.874 58.8104ZM136.198 58.8104C135.201 58.8104 134.309 58.6235 133.522 58.2497C132.734 57.8708 132.108 57.3524 131.645 56.6944C131.186 56.0364 130.942 55.2837 130.912 54.4363H133.604C133.654 55.0644 133.925 55.5778 134.419 55.9766C134.912 56.3704 135.506 56.5673 136.198 56.5673C136.742 56.5673 137.225 56.4427 137.649 56.1934C138.073 55.9442 138.407 55.5978 138.651 55.1541C138.895 54.7105 139.015 54.2045 139.01 53.6363C139.015 53.0581 138.893 52.5446 138.643 52.096C138.394 51.6474 138.053 51.2959 137.619 51.0417C137.185 50.7825 136.687 50.6529 136.124 50.6529C135.665 50.6479 135.214 50.7327 134.77 50.9071C134.327 51.0816 133.975 51.3109 133.716 51.595L131.211 51.1838L132.011 43.288H140.894V45.6059H134.307L133.866 49.6659H133.955C134.239 49.332 134.641 49.0553 135.159 48.836C135.677 48.6117 136.246 48.4995 136.864 48.4995C137.791 48.4995 138.618 48.7188 139.346 49.1575C140.074 49.5912 140.647 50.1893 141.066 50.952C141.485 51.7147 141.694 52.587 141.694 53.569C141.694 54.5809 141.46 55.4831 140.991 56.2757C140.528 57.0633 139.882 57.6839 139.055 58.1375C138.232 58.5861 137.28 58.8104 136.198 58.8104Z" fill="black"/>
<path d="M93.0954 76.6011V65.7918H97.1489C97.9793 65.7918 98.676 65.9466 99.239 66.2563C99.8055 66.5659 100.233 66.9917 100.522 67.5336C100.814 68.0719 100.96 68.6841 100.96 69.3703C100.96 70.0634 100.814 70.6792 100.522 71.2176C100.229 71.7559 99.7984 72.1799 99.2284 72.4895C98.6584 72.7957 97.9564 72.9487 97.1225 72.9487H94.436V71.339H96.8586C97.3442 71.339 97.7418 71.2545 98.0514 71.0856C98.3611 70.9167 98.5898 70.6845 98.7376 70.3889C98.8889 70.0934 98.9645 69.7538 98.9645 69.3703C98.9645 68.9867 98.8889 68.649 98.7376 68.3569C98.5898 68.0649 98.3593 67.8379 98.0462 67.6761C97.7365 67.5107 97.3372 67.428 96.8481 67.428H95.0536V76.6011H93.0954ZM106.021 76.7594C105.229 76.7594 104.543 76.5852 103.962 76.2369C103.382 75.8886 102.931 75.4012 102.611 74.7749C102.295 74.1486 102.136 73.4167 102.136 72.5793C102.136 71.7418 102.295 71.0082 102.611 70.3784C102.931 69.7485 103.382 69.2594 103.962 68.9111C104.543 68.5628 105.229 68.3886 106.021 68.3886C106.813 68.3886 107.499 68.5628 108.079 68.9111C108.66 69.2594 109.108 69.7485 109.425 70.3784C109.745 71.0082 109.905 71.7418 109.905 72.5793C109.905 73.4167 109.745 74.1486 109.425 74.7749C109.108 75.4012 108.66 75.8886 108.079 76.2369C107.499 76.5852 106.813 76.7594 106.021 76.7594ZM106.031 75.2288C106.461 75.2288 106.82 75.1109 107.108 74.8752C107.397 74.6359 107.611 74.3157 107.752 73.9146C107.896 73.5135 107.968 73.0666 107.968 72.574C107.968 72.0779 107.896 71.6292 107.752 71.2281C107.611 70.8235 107.397 70.5015 107.108 70.2623C106.82 70.023 106.461 69.9034 106.031 69.9034C105.592 69.9034 105.226 70.023 104.934 70.2623C104.645 70.5015 104.429 70.8235 104.284 71.2281C104.144 71.6292 104.073 72.0779 104.073 72.574C104.073 73.0666 104.144 73.5135 104.284 73.9146C104.429 74.3157 104.645 74.6359 104.934 74.8752C105.226 75.1109 105.592 75.2288 106.031 75.2288ZM111.552 76.6011V68.4941H113.462V76.6011H111.552ZM112.512 67.3435C112.21 67.3435 111.949 67.2433 111.731 67.0427C111.513 66.8386 111.404 66.5941 111.404 66.3091C111.404 66.0205 111.513 65.776 111.731 65.5754C111.949 65.3713 112.21 65.2693 112.512 65.2693C112.819 65.2693 113.079 65.3713 113.294 65.5754C113.512 65.776 113.621 66.0205 113.621 66.3091C113.621 66.5941 113.512 66.8386 113.294 67.0427C113.079 67.2433 112.819 67.3435 112.512 67.3435ZM117.363 71.8509V76.6011H115.452V68.4941H117.278V69.8717H117.373C117.56 69.4178 117.857 69.0571 118.265 68.7897C118.677 68.5223 119.185 68.3886 119.79 68.3886C120.35 68.3886 120.837 68.5082 121.252 68.7475C121.671 68.9867 121.995 69.3333 122.224 69.7872C122.456 70.2411 122.57 70.7918 122.567 71.4392V76.6011H120.656V71.7348C120.656 71.1929 120.515 70.7689 120.234 70.4628C119.956 70.1567 119.571 70.0036 119.078 70.0036C118.744 70.0036 118.446 70.0775 118.186 70.2253C117.929 70.3696 117.727 70.5789 117.579 70.8534C117.435 71.1278 117.363 71.4603 117.363 71.8509ZM128.582 68.4941V69.972H123.921V68.4941H128.582ZM125.072 66.5519H126.983V74.1627C126.983 74.4195 127.021 74.6166 127.099 74.7538C127.18 74.8875 127.285 74.979 127.415 75.0282C127.546 75.0775 127.69 75.1021 127.848 75.1021C127.968 75.1021 128.077 75.0933 128.175 75.0757C128.278 75.0582 128.355 75.0423 128.408 75.0282L128.73 76.5219C128.628 76.5571 128.482 76.5958 128.292 76.638C128.105 76.6802 127.876 76.7049 127.605 76.7119C127.127 76.726 126.696 76.6539 126.312 76.4955C125.929 76.3337 125.624 76.0838 125.399 75.746C125.178 75.4083 125.069 74.986 125.072 74.4793V66.5519ZM136.496 70.637L134.754 70.827C134.705 70.6511 134.619 70.4857 134.496 70.3309C134.376 70.176 134.214 70.0511 134.01 69.9561C133.806 69.8611 133.556 69.8136 133.26 69.8136C132.863 69.8136 132.529 69.8998 132.258 70.0722C131.99 70.2447 131.858 70.4681 131.862 70.7425C131.858 70.9783 131.945 71.1701 132.12 71.3178C132.3 71.4656 132.595 71.587 133.007 71.682L134.39 71.9776C135.157 72.143 135.727 72.4051 136.1 72.764C136.477 73.1229 136.667 73.5926 136.67 74.1732C136.667 74.6834 136.517 75.1338 136.221 75.5244C135.929 75.9114 135.523 76.214 135.002 76.4322C134.481 76.6503 133.883 76.7594 133.208 76.7594C132.215 76.7594 131.417 76.5518 130.812 76.1366C130.206 75.7179 129.846 75.1356 129.73 74.3896L131.593 74.2102C131.677 74.5761 131.857 74.8523 132.131 75.0388C132.405 75.2253 132.763 75.3185 133.202 75.3185C133.656 75.3185 134.021 75.2253 134.295 75.0388C134.573 74.8523 134.712 74.6218 134.712 74.3474C134.712 74.1152 134.622 73.9234 134.443 73.7721C134.267 73.6208 133.992 73.5047 133.619 73.4237L132.237 73.1335C131.459 72.9716 130.884 72.6989 130.511 72.3154C130.138 71.9283 129.953 71.4392 129.956 70.8481C129.953 70.3485 130.088 69.9157 130.363 69.5497C130.641 69.1803 131.026 68.8953 131.519 68.6947C132.015 68.4906 132.587 68.3886 133.234 68.3886C134.184 68.3886 134.932 68.5909 135.477 68.9955C136.026 69.4002 136.366 69.9473 136.496 70.637Z" fill="#9098A3"/>
<ellipse cx="53.6597" cy="59.895" rx="17.3589" ry="17.3398" fill="url(#paint0_linear_21_1201)" fill-opacity="0.15"/>
<path d="M52.5145 70.0638V62.9356H48.1646C47.5596 62.9356 47.1507 62.2469 47.4451 61.6787L53.463 49.3334C53.8391 48.5241 55.0001 48.8168 55.0001 49.7294V56.9437H59.1538C59.7588 56.9437 60.1513 57.6152 59.8896 58.1834L54.068 70.4426C53.6755 71.2691 52.5145 70.9764 52.5145 70.0638Z" fill="url(#paint1_linear_21_1201)"/>
<rect x="229.509" y="17.7842" width="197.952" height="84.2221" rx="24.7712" fill="white"/>
<path d="M310.986 58.6011L313.498 43.288H315.592L313.08 58.6011H310.986ZM304.085 54.6532L304.436 52.5596H316.22L315.869 54.6532H304.085ZM305.603 58.6011L308.115 43.288H310.208L307.696 58.6011H305.603ZM304.974 49.3295L305.318 47.2359H317.102L316.758 49.3295H304.974ZM318.734 58.6011V56.5972L324.05 51.3857C324.559 50.8722 324.983 50.4161 325.322 50.0174C325.66 49.6186 325.915 49.2323 326.084 48.8584C326.254 48.4846 326.338 48.0858 326.338 47.6621C326.338 47.1786 326.229 46.7648 326.009 46.4209C325.79 46.0719 325.489 45.8028 325.105 45.6134C324.721 45.4239 324.285 45.3292 323.796 45.3292C323.293 45.3292 322.852 45.4339 322.473 45.6433C322.094 45.8476 321.8 46.1392 321.59 46.5181C321.386 46.8969 321.284 47.348 321.284 47.8714H318.644C318.644 46.8994 318.866 46.0545 319.31 45.3367C319.754 44.6189 320.364 44.0631 321.142 43.6693C321.924 43.2755 322.822 43.0786 323.834 43.0786C324.86 43.0786 325.763 43.2705 326.54 43.6544C327.318 44.0382 327.921 44.5641 328.35 45.232C328.783 45.9 329 46.6626 329 47.52C329 48.0933 328.891 48.6565 328.671 49.2098C328.452 49.7631 328.066 50.3763 327.512 51.0492C326.964 51.7221 326.194 52.5371 325.202 53.4942L322.562 56.1785V56.2832H329.232V58.6011H318.734Z" fill="black"/>
<path d="M304.889 76.6011V65.7918H306.847V74.9596H311.608V76.6011H304.889ZM316.837 76.7594C316.024 76.7594 315.322 76.5905 314.731 76.2527C314.143 75.9114 313.691 75.4294 313.374 74.8066C313.058 74.1803 312.899 73.4431 312.899 72.5951C312.899 71.7612 313.058 71.0293 313.374 70.3995C313.695 69.7661 314.142 69.2735 314.715 68.9217C315.289 68.5663 315.962 68.3886 316.737 68.3886C317.236 68.3886 317.708 68.4695 318.151 68.6314C318.598 68.7897 318.992 69.036 319.333 69.3703C319.678 69.7045 319.949 70.1303 320.146 70.6475C320.343 71.1613 320.442 71.7735 320.442 72.4843V73.0701H313.797V71.7823H318.61C318.607 71.4164 318.528 71.0909 318.373 70.8059C318.218 70.5174 318.001 70.2904 317.724 70.125C317.449 69.9597 317.129 69.877 316.763 69.877C316.372 69.877 316.029 69.972 315.734 70.162C315.438 70.3485 315.208 70.5948 315.042 70.9009C314.88 71.2035 314.798 71.536 314.794 71.8984V73.0226C314.794 73.4941 314.88 73.8988 315.053 74.2366C315.225 74.5708 315.466 74.8277 315.776 75.0071C316.086 75.1831 316.448 75.271 316.863 75.271C317.141 75.271 317.393 75.2323 317.618 75.1549C317.843 75.074 318.038 74.9561 318.204 74.8013C318.369 74.6465 318.494 74.4547 318.579 74.226L320.362 74.4266C320.25 74.8981 320.035 75.3097 319.719 75.6616C319.405 76.0099 319.004 76.2809 318.515 76.4744C318.026 76.6644 317.467 76.7594 316.837 76.7594ZM324.416 76.7647C323.902 76.7647 323.439 76.6732 323.028 76.4902C322.619 76.3037 322.296 76.0293 322.056 75.6669C321.821 75.3045 321.703 74.8576 321.703 74.3263C321.703 73.8689 321.787 73.4906 321.956 73.1915C322.125 72.8924 322.355 72.6532 322.648 72.4737C322.94 72.2943 323.269 72.1588 323.635 72.0673C324.004 71.9723 324.386 71.9037 324.78 71.8615C325.255 71.8122 325.64 71.7682 325.936 71.7295C326.231 71.6873 326.446 71.624 326.58 71.5395C326.717 71.4516 326.785 71.3161 326.785 71.1331V71.1014C326.785 70.7038 326.668 70.396 326.432 70.1778C326.196 69.9597 325.857 69.8506 325.413 69.8506C324.945 69.8506 324.574 69.9526 324.3 70.1567C324.029 70.3608 323.846 70.6018 323.751 70.8798L321.967 70.6264C322.107 70.1338 322.34 69.7221 322.663 69.3914C322.987 69.0571 323.383 68.8073 323.851 68.6419C324.319 68.473 324.836 68.3886 325.403 68.3886C325.793 68.3886 326.182 68.4343 326.569 68.5258C326.956 68.6173 327.31 68.7686 327.63 68.9797C327.95 69.1873 328.207 69.4706 328.401 69.8295C328.598 70.1884 328.696 70.637 328.696 71.1753V76.6011H326.859V75.4874H326.796C326.68 75.7126 326.516 75.9237 326.305 76.1208C326.098 76.3143 325.835 76.4709 325.519 76.5905C325.206 76.7066 324.838 76.7647 324.416 76.7647ZM324.912 75.3608C325.295 75.3608 325.628 75.2851 325.909 75.1338C326.191 74.979 326.407 74.7749 326.559 74.5216C326.713 74.2682 326.791 73.992 326.791 73.6929V72.7376C326.731 72.7869 326.629 72.8326 326.485 72.8748C326.344 72.9171 326.186 72.954 326.01 72.9857C325.834 73.0173 325.659 73.0455 325.487 73.0701C325.315 73.0948 325.165 73.1159 325.038 73.1335C324.753 73.1722 324.498 73.2355 324.273 73.3235C324.048 73.4114 323.87 73.5346 323.74 73.6929C323.61 73.8477 323.545 74.0483 323.545 74.2946C323.545 74.6465 323.673 74.9121 323.93 75.0916C324.187 75.271 324.514 75.3608 324.912 75.3608ZM333.65 76.7436C333.014 76.7436 332.444 76.58 331.94 76.2527C331.437 75.9255 331.04 75.4505 330.748 74.8277C330.456 74.2049 330.31 73.4484 330.31 72.5582C330.31 71.6574 330.457 70.8974 330.753 70.2781C331.052 69.6553 331.455 69.1856 331.962 68.8689C332.468 68.5487 333.033 68.3886 333.656 68.3886C334.131 68.3886 334.521 68.4695 334.827 68.6314C335.134 68.7897 335.376 68.9815 335.556 69.2067C335.735 69.4283 335.874 69.6377 335.973 69.8347H336.052V65.7918H337.968V76.6011H336.089V75.3238H335.973C335.874 75.5209 335.732 75.7302 335.545 75.9519C335.359 76.17 335.112 76.3565 334.806 76.5113C334.5 76.6662 334.115 76.7436 333.65 76.7436ZM334.184 75.176C334.588 75.176 334.933 75.0669 335.218 74.8488C335.503 74.6271 335.719 74.3192 335.867 73.9252C336.015 73.5311 336.089 73.0719 336.089 72.5476C336.089 72.0233 336.015 71.5677 335.867 71.1806C335.723 70.7936 335.508 70.4927 335.223 70.2781C334.942 70.0634 334.595 69.9561 334.184 69.9561C333.758 69.9561 333.402 70.067 333.117 70.2886C332.832 70.5103 332.618 70.8164 332.473 71.207C332.329 71.5976 332.257 72.0444 332.257 72.5476C332.257 73.0543 332.329 73.5064 332.473 73.904C332.621 74.2981 332.838 74.6095 333.123 74.8382C333.411 75.0634 333.765 75.176 334.184 75.176ZM343.618 76.7594C342.805 76.7594 342.103 76.5905 341.512 76.2527C340.924 75.9114 340.472 75.4294 340.155 74.8066C339.839 74.1803 339.68 73.4431 339.68 72.5951C339.68 71.7612 339.839 71.0293 340.155 70.3995C340.475 69.7661 340.922 69.2735 341.496 68.9217C342.069 68.5663 342.743 68.3886 343.517 68.3886C344.017 68.3886 344.488 68.4695 344.932 68.6314C345.379 68.7897 345.773 69.036 346.114 69.3703C346.459 69.7045 346.73 70.1303 346.927 70.6475C347.124 71.1613 347.222 71.7735 347.222 72.4843V73.0701H340.577V71.7823H345.391C345.387 71.4164 345.308 71.0909 345.153 70.8059C344.999 70.5174 344.782 70.2904 344.504 70.125C344.23 69.9597 343.91 69.877 343.544 69.877C343.153 69.877 342.81 69.972 342.514 70.162C342.219 70.3485 341.988 70.5948 341.823 70.9009C341.661 71.2035 341.579 71.536 341.575 71.8984V73.0226C341.575 73.4941 341.661 73.8988 341.834 74.2366C342.006 74.5708 342.247 74.8277 342.557 75.0071C342.866 75.1831 343.229 75.271 343.644 75.271C343.922 75.271 344.174 75.2323 344.399 75.1549C344.624 75.074 344.819 74.9561 344.985 74.8013C345.15 74.6465 345.275 74.4547 345.359 74.226L347.143 74.4266C347.031 74.8981 346.816 75.3097 346.499 75.6616C346.186 76.0099 345.785 76.2809 345.296 76.4744C344.807 76.6644 344.247 76.7594 343.618 76.7594ZM348.864 76.6011V68.4941H350.716V69.8453H350.801C350.948 69.3773 351.202 69.0167 351.561 68.7633C351.923 68.5065 352.336 68.378 352.801 68.378C352.906 68.378 353.024 68.3833 353.155 68.3939C353.288 68.4009 353.399 68.4132 353.487 68.4308V70.1884C353.406 70.1602 353.278 70.1356 353.102 70.1145C352.929 70.0898 352.762 70.0775 352.6 70.0775C352.252 70.0775 351.939 70.1532 351.661 70.3045C351.386 70.4523 351.17 70.6581 351.012 70.922C350.853 71.1859 350.774 71.4903 350.774 71.8351V76.6011H348.864ZM354.866 76.6011V65.7918H356.776V69.8347H356.855C356.954 69.6377 357.093 69.4283 357.272 69.2067C357.452 68.9815 357.695 68.7897 358.001 68.6314C358.307 68.4695 358.697 68.3886 359.172 68.3886C359.799 68.3886 360.363 68.5487 360.867 68.8689C361.373 69.1856 361.774 69.6553 362.07 70.2781C362.369 70.8974 362.519 71.6574 362.519 72.5582C362.519 73.4484 362.373 74.2049 362.081 74.8277C361.789 75.4505 361.391 75.9255 360.888 76.2527C360.385 76.58 359.815 76.7436 359.178 76.7436C358.713 76.7436 358.328 76.6662 358.022 76.5113C357.716 76.3565 357.469 76.17 357.283 75.9519C357.1 75.7302 356.957 75.5209 356.855 75.3238H356.745V76.6011H354.866ZM356.739 72.5476C356.739 73.0719 356.813 73.5311 356.961 73.9252C357.112 74.3192 357.329 74.6271 357.61 74.8488C357.895 75.0669 358.24 75.176 358.645 75.176C359.067 75.176 359.42 75.0634 359.705 74.8382C359.99 74.6095 360.205 74.2981 360.349 73.904C360.497 73.5064 360.571 73.0543 360.571 72.5476C360.571 72.0444 360.499 71.5976 360.355 71.207C360.21 70.8164 359.996 70.5103 359.711 70.2886C359.426 70.067 359.07 69.9561 358.645 69.9561C358.236 69.9561 357.89 70.0634 357.605 70.2781C357.32 70.4927 357.103 70.7936 356.956 71.1806C356.811 71.5677 356.739 72.0233 356.739 72.5476ZM367.704 76.7594C366.912 76.7594 366.226 76.5852 365.646 76.2369C365.065 75.8886 364.615 75.4012 364.294 74.7749C363.978 74.1486 363.819 73.4167 363.819 72.5793C363.819 71.7418 363.978 71.0082 364.294 70.3784C364.615 69.7485 365.065 69.2594 365.646 68.9111C366.226 68.5628 366.912 68.3886 367.704 68.3886C368.496 68.3886 369.182 68.5628 369.762 68.9111C370.343 69.2594 370.792 69.7485 371.108 70.3784C371.428 71.0082 371.588 71.7418 371.588 72.5793C371.588 73.4167 371.428 74.1486 371.108 74.7749C370.792 75.4012 370.343 75.8886 369.762 76.2369C369.182 76.5852 368.496 76.7594 367.704 76.7594ZM367.714 75.2288C368.144 75.2288 368.503 75.1109 368.791 74.8752C369.08 74.6359 369.294 74.3157 369.435 73.9146C369.579 73.5135 369.651 73.0666 369.651 72.574C369.651 72.0779 369.579 71.6292 369.435 71.2281C369.294 70.8235 369.08 70.5015 368.791 70.2623C368.503 70.023 368.144 69.9034 367.714 69.9034C367.275 69.9034 366.909 70.023 366.617 70.2623C366.328 70.5015 366.112 70.8235 365.967 71.2281C365.827 71.6292 365.756 72.0779 365.756 72.574C365.756 73.0666 365.827 73.5135 365.967 73.9146C366.112 74.3157 366.328 74.6359 366.617 74.8752C366.909 75.1109 367.275 75.2288 367.714 75.2288ZM375.568 76.7647C375.054 76.7647 374.591 76.6732 374.18 76.4902C373.772 76.3037 373.448 76.0293 373.209 75.6669C372.973 75.3045 372.855 74.8576 372.855 74.3263C372.855 73.8689 372.939 73.4906 373.108 73.1915C373.277 72.8924 373.508 72.6532 373.8 72.4737C374.092 72.2943 374.421 72.1588 374.787 72.0673C375.156 71.9723 375.538 71.9037 375.932 71.8615C376.407 71.8122 376.792 71.7682 377.088 71.7295C377.383 71.6873 377.598 71.624 377.732 71.5395C377.869 71.4516 377.938 71.3161 377.938 71.1331V71.1014C377.938 70.7038 377.82 70.396 377.584 70.1778C377.348 69.9597 377.009 69.8506 376.565 69.8506C376.097 69.8506 375.726 69.9526 375.452 70.1567C375.181 70.3608 374.998 70.6018 374.903 70.8798L373.119 70.6264C373.26 70.1338 373.492 69.7221 373.815 69.3914C374.139 69.0571 374.535 68.8073 375.003 68.6419C375.471 68.473 375.988 68.3886 376.555 68.3886C376.945 68.3886 377.334 68.4343 377.721 68.5258C378.108 68.6173 378.462 68.7686 378.782 68.9797C379.102 69.1873 379.359 69.4706 379.553 69.8295C379.75 70.1884 379.848 70.637 379.848 71.1753V76.6011H378.011V75.4874H377.948C377.832 75.7126 377.668 75.9237 377.457 76.1208C377.25 76.3143 376.988 76.4709 376.671 76.5905C376.358 76.7066 375.99 76.7647 375.568 76.7647ZM376.064 75.3608C376.447 75.3608 376.78 75.2851 377.061 75.1338C377.343 74.979 377.559 74.7749 377.711 74.5216C377.865 74.2682 377.943 73.992 377.943 73.6929V72.7376C377.883 72.7869 377.781 72.8326 377.637 72.8748C377.496 72.9171 377.338 72.954 377.162 72.9857C376.986 73.0173 376.812 73.0455 376.639 73.0701C376.467 73.0948 376.317 73.1159 376.191 73.1335C375.906 73.1722 375.65 73.2355 375.425 73.3235C375.2 73.4114 375.022 73.5346 374.892 73.6929C374.762 73.8477 374.697 74.0483 374.697 74.2946C374.697 74.6465 374.825 74.9121 375.082 75.0916C375.339 75.271 375.666 75.3608 376.064 75.3608ZM381.794 76.6011V68.4941H383.647V69.8453H383.731C383.879 69.3773 384.132 69.0167 384.491 68.7633C384.854 68.5065 385.267 68.378 385.731 68.378C385.837 68.378 385.955 68.3833 386.085 68.3939C386.219 68.4009 386.33 68.4132 386.418 68.4308V70.1884C386.337 70.1602 386.208 70.1356 386.032 70.1145C385.86 70.0898 385.693 70.0775 385.531 70.0775C385.183 70.0775 384.869 70.1532 384.591 70.3045C384.317 70.4523 384.101 70.6581 383.942 70.922C383.784 71.1859 383.705 71.4903 383.705 71.8351V76.6011H381.794ZM390.386 76.7436C389.749 76.7436 389.179 76.58 388.676 76.2527C388.173 75.9255 387.776 75.4505 387.483 74.8277C387.191 74.2049 387.045 73.4484 387.045 72.5582C387.045 71.6574 387.193 70.8974 387.489 70.2781C387.788 69.6553 388.191 69.1856 388.697 68.8689C389.204 68.5487 389.769 68.3886 390.392 68.3886C390.867 68.3886 391.257 68.4695 391.563 68.6314C391.869 68.7897 392.112 68.9815 392.292 69.2067C392.471 69.4283 392.61 69.6377 392.709 69.8347H392.788V65.7918H394.704V76.6011H392.825V75.3238H392.709C392.61 75.5209 392.468 75.7302 392.281 75.9519C392.095 76.17 391.848 76.3565 391.542 76.5113C391.236 76.6662 390.851 76.7436 390.386 76.7436ZM390.919 75.176C391.324 75.176 391.669 75.0669 391.954 74.8488C392.239 74.6271 392.455 74.3192 392.603 73.9252C392.751 73.5311 392.825 73.0719 392.825 72.5476C392.825 72.0233 392.751 71.5677 392.603 71.1806C392.459 70.7936 392.244 70.4927 391.959 70.2781C391.678 70.0634 391.331 69.9561 390.919 69.9561C390.494 69.9561 390.138 70.067 389.853 70.2886C389.568 70.5103 389.354 70.8164 389.209 71.207C389.065 71.5976 388.993 72.0444 388.993 72.5476C388.993 73.0543 389.065 73.5064 389.209 73.904C389.357 74.2981 389.574 74.6095 389.859 74.8382C390.147 75.0634 390.501 75.176 390.919 75.176Z" fill="#9098A3"/>
<g clip-path="url(#clip0_21_1201)">
<path d="M262.125 67.3261H259.235C258.781 67.3261 258.409 66.9545 258.409 66.5004V58.2433C258.409 57.7892 258.781 57.4176 259.235 57.4176H262.125C262.579 57.4176 262.95 57.7892 262.95 58.2433V66.5004C262.95 66.9545 262.579 67.3261 262.125 67.3261ZM268.111 52.4634H265.221C264.767 52.4634 264.395 52.8349 264.395 53.2891V66.5004C264.395 66.9545 264.767 67.3261 265.221 67.3261H268.111C268.565 67.3261 268.937 66.9545 268.937 66.5004V53.2891C268.937 52.8349 268.565 52.4634 268.111 52.4634ZM274.097 59.069H271.207C270.753 59.069 270.382 59.4406 270.382 59.8947V66.5004C270.382 66.9545 270.753 67.3261 271.207 67.3261H274.097C274.551 67.3261 274.923 66.9545 274.923 66.5004V59.8947C274.923 59.4406 274.551 59.069 274.097 59.069Z" fill="url(#paint2_linear_21_1201)"/>
</g>
<g opacity="0.2">
<ellipse cx="266.625" cy="59.895" rx="17.3208" ry="17.3398" fill="url(#paint3_linear_21_1201)"/>
</g>
</g>
</svg>
