<svg width="37" height="36" viewBox="0 0 37 36" fill="none" xmlns="http://www.w3.org/2000/svg">
<path fill-rule="evenodd" clip-rule="evenodd" d="M18.8418 34.5745C24.2438 34.5745 28.751 27.154 28.751 18.0004C28.751 8.84711 24.2438 1.42639 18.8418 1.42639C13.4396 1.42639 8.93225 8.84692 8.93225 18.0004C8.93244 27.154 13.4398 34.5745 18.8418 34.5745Z" fill="white"/>
<path d="M18.8417 33.6774C21.2157 33.6774 23.4311 31.9775 25.0729 29.2315C26.7848 26.3676 27.8544 22.4 27.8544 17.9998C27.8544 13.5998 26.7848 9.63202 25.0729 6.76854C23.4311 4.02236 21.2159 2.32242 18.8417 2.32242C16.4676 2.32242 14.2525 4.02236 12.6107 6.76854C10.8986 9.63202 9.82884 13.6 9.82884 17.9998C9.82884 22.4 10.8986 26.368 12.6107 29.2315C14.2525 31.9777 16.4678 33.6774 18.8417 33.6774ZM18.8417 35.4707C15.7962 35.4707 13.0417 33.4359 11.0766 30.149C9.20504 27.0189 8.03552 22.7237 8.03552 18C8.03552 13.2764 9.20485 8.98133 11.0766 5.85097C13.0419 2.5641 15.7963 0.529297 18.8417 0.529297C21.8873 0.529297 24.6413 2.5641 26.6068 5.85097C28.4784 8.98133 29.6475 13.2764 29.6475 18C29.6475 22.7237 28.4784 27.0185 26.6068 30.149C24.6415 33.4359 21.8875 35.4707 18.8417 35.4707V35.4707Z" fill="black"/>
<path d="M18.8418 34.2537C21.4318 34.2537 23.82 32.4462 25.5657 29.5264C27.3289 26.5772 28.431 22.504 28.431 18C28.431 13.496 27.3291 9.42302 25.5657 6.47364C23.82 3.55376 21.4318 1.74625 18.8418 1.74625C16.2519 1.74625 13.8634 3.55376 12.1177 6.47364C10.3543 9.42302 9.25254 13.496 9.25254 18C9.25254 22.504 10.3541 26.5772 12.1177 29.5264C13.8634 32.4464 16.2519 34.2537 18.8418 34.2537ZM18.8418 34.8944C16.0121 34.8944 13.431 32.9673 11.5697 29.8543C9.74933 26.8095 8.61194 22.6198 8.61194 18C8.61194 13.3804 9.74933 9.19069 11.5697 6.14605C13.431 3.03287 16.0121 1.10583 18.8418 1.10583C21.6714 1.10583 24.2525 3.03287 26.1136 6.14605C27.9338 9.19069 29.0712 13.3804 29.0712 18C29.0712 22.6196 27.9338 26.8095 26.1136 29.8543C24.2527 32.9673 21.6714 34.8944 18.8418 34.8944V34.8944Z" fill="#CA2E31"/>
<path fill-rule="evenodd" clip-rule="evenodd" d="M17.1747 27.1572V9.14038H15.5138V26.517L17.1747 27.1572Z" fill="black"/>
<path fill-rule="evenodd" clip-rule="evenodd" d="M15.5094 26.517V9.14038L13.8485 10.165V25.8765L15.5094 26.517Z" fill="#CA2E31"/>
<path fill-rule="evenodd" clip-rule="evenodd" d="M13.8447 25.8777V10.1661L12.1838 11.4472V24.5969L13.8447 25.8777Z" fill="black"/>
<path fill-rule="evenodd" clip-rule="evenodd" d="M12.1793 24.5954V11.4457L10.5186 14.0072V22.0336L12.1793 24.5954Z" fill="#CA2E31"/>
<path fill-rule="evenodd" clip-rule="evenodd" d="M10.5144 22.2912V13.6244L9.75012 15.5456V20.7543L10.5144 22.2912Z" fill="black"/>
<path d="M22.3642 9.51482V26.8378H21.7238V9.1947H22.3642V9.51482V9.51482ZM24.6696 10.7316V25.6214H24.029V10.4115H24.6696V10.7316V10.7316Z" fill="black"/>
<path d="M19.1651 18.8352H28.1757V19.4753H18.845V18.8352H19.1651V18.8352ZM19.1651 16.5294H28.1757V17.17H18.845V16.5294H19.1651V16.5294Z" fill="black"/>
<path fill-rule="evenodd" clip-rule="evenodd" d="M28.2346 17.1649H24.0269V10.5495L22.366 9.52477V17.1649H18.8397V8.6283L17.1788 8.88435V27.1574H18.8397V18.8256H22.366V26.5172L24.0269 25.8768V18.8256H28.2346V17.1649V17.1649Z" fill="#CA2E31"/>
<path d="M19.4822 8.87456V27.5107H18.8416V8.55444H19.4822V8.87456Z" fill="black"/>
<path d="M18.8417 26.9172C21.304 26.9172 23.5336 25.9187 25.1472 24.3051C26.7609 22.6914 27.7593 20.4618 27.7593 17.9993C27.7593 15.5368 26.7609 13.3072 25.1472 11.6936C23.5336 10.08 21.304 9.0817 18.8417 9.0817C16.379 9.0817 14.1496 10.08 12.5358 11.6936C10.9221 13.3074 9.92386 15.5368 9.92386 17.9993C9.92386 20.4622 10.9221 22.6916 12.5358 24.3051C14.1496 25.9187 16.3792 26.9172 18.8417 26.9172V26.9172ZM18.8417 27.5578C16.2023 27.5578 13.8127 26.4878 12.083 24.7582C10.3534 23.0285 9.28345 20.6387 9.28345 17.9995C9.28345 15.3604 10.3534 12.9707 12.083 11.2409C13.8127 9.51107 16.2023 8.44128 18.8417 8.44128C21.4809 8.44128 23.8705 9.51126 25.6003 11.2409C27.3298 12.9705 28.3996 15.3602 28.3996 17.9995C28.3996 20.6389 27.3296 23.0285 25.6003 24.7582C23.8707 26.4878 21.481 27.5578 18.8417 27.5578V27.5578Z" fill="black"/>
<path fill-rule="evenodd" clip-rule="evenodd" d="M14.1936 27.7313L14.2784 27.7619C14.8506 27.969 15.1009 27.7543 15.1875 27.5548L15.675 27.7309L14.6853 30.4674L14.0918 30.253L14.7735 28.3681L14.057 28.1091L14.1936 27.7313V27.7313ZM17.0025 29.2332C16.7351 29.1927 16.6251 28.9856 16.6506 28.8153C16.6826 28.6048 16.8518 28.4811 17.1325 28.5235C17.3333 28.5538 17.4773 28.7165 17.4442 28.9353C17.4128 29.1421 17.2475 29.2706 17.0025 29.2332ZM17.9653 30.2535C18.0217 29.8808 17.8797 29.6729 17.5977 29.4893C17.8702 29.4062 18.0135 29.2121 18.0508 28.9647C18.111 28.5678 17.8166 28.1625 17.1613 28.0633C16.6086 27.9799 16.1313 28.2103 16.0571 28.7006C16.0166 28.968 16.1228 29.1709 16.3552 29.3218C15.8431 29.4516 15.7855 29.8324 15.7635 29.9784C15.7041 30.3716 15.9118 30.8962 16.7278 31.0198C17.5656 31.1466 17.91 30.6185 17.9653 30.2535V30.2535ZM17.3196 30.1811C17.2896 30.3794 17.1261 30.6159 16.8008 30.5666C16.5154 30.5236 16.3692 30.3148 16.4108 30.0391C16.4581 29.7272 16.6968 29.6266 16.9241 29.6609C17.2718 29.7134 17.3503 29.9782 17.3196 30.1811V30.1811ZM19.1641 29.1458C19.1298 28.7293 19.4159 28.6315 19.5774 28.618C19.9009 28.591 20.075 28.7822 20.1026 29.113C20.131 29.4562 19.9002 29.6193 19.6798 29.6376C19.442 29.6572 19.2005 29.5829 19.1641 29.1458ZM18.7034 30.4629C18.7956 30.9199 19.2103 31.1735 19.7539 31.1282C20.3292 31.0807 20.8829 30.6685 20.7899 29.5453C20.7559 29.1367 20.6483 28.0559 19.5431 28.1476C18.9183 28.1993 18.4832 28.5685 18.542 29.2796C18.5823 29.7655 18.9721 30.1568 19.5832 30.1062C19.7987 30.0882 20.0417 30.0186 20.1695 29.8107L20.1794 29.818C20.2253 30.4272 19.9812 30.6489 19.7205 30.6704C19.5272 30.6865 19.381 30.6121 19.3283 30.4151L19.3279 30.4112L18.7034 30.4629V30.4629ZM21.8535 28.7073C21.7185 28.3116 21.9721 28.147 22.1256 28.0945C22.4331 27.9898 22.6484 28.1328 22.7556 28.447C22.8669 28.7731 22.6826 28.9873 22.4736 29.0586C22.2474 29.1359 21.9955 29.1221 21.8535 28.7073ZM21.7277 30.097C21.9282 30.518 22.3923 30.6627 22.9084 30.4866C23.4548 30.3002 23.8915 29.7655 23.5277 28.6989C23.3953 28.3112 23.0272 27.289 21.9777 27.6469C21.3846 27.8493 21.0523 28.3136 21.2824 28.9886C21.44 29.4504 21.9135 29.7349 22.4938 29.5369C22.6985 29.4669 22.9173 29.3403 22.9902 29.1075L23.0016 29.1122C23.1945 29.6919 23.0118 29.9661 22.7644 30.0507C22.581 30.1131 22.4207 30.077 22.3219 29.8987L22.3204 29.8948L21.7277 30.097V30.097ZM18.9966 4.13525C18.1068 4.15001 17.3241 4.85 17.3383 5.69959C17.3523 6.54358 18.1511 7.21743 19.0474 7.20249C19.4891 7.1952 19.9028 7.03701 20.1932 6.76434L20.6418 7.17615C20.238 7.54968 19.6719 7.78015 19.0506 7.79042C17.7701 7.81153 16.7044 6.88013 16.685 5.71024C16.6656 4.54034 17.6808 3.56879 18.9871 3.54713C19.6079 3.53686 20.1685 3.73726 20.5783 4.10892L20.1435 4.5353C19.8443 4.27271 19.4448 4.12797 18.9966 4.13525V4.13525ZM21.6595 4.29587L20.6349 7.86625L21.1474 7.99418L21.7874 5.94481L22.3001 8.37836H22.5401L23.1966 6.84147L23.9812 9.16295L24.7178 9.67525L23.5647 5.70482L23.1007 5.43252L22.6041 6.77741L22.1559 4.55192L21.6595 4.29587V4.29587ZM17.0006 7.88212L16.008 4.29568L15.1435 4.7921L12.6938 9.78731L13.6865 9.14689L14.3269 7.85019L16.0881 7.17765L16.3443 8.04218L17.0006 7.88212V7.88212ZM14.647 7.08165L15.6077 5.14453L15.9439 6.56935L14.647 7.08165Z" fill="black"/>
</svg>
