<svg width="22" height="44" viewBox="0 0 22 44" fill="none" xmlns="http://www.w3.org/2000/svg">
<path d="M18.0597 26.5958C18.0597 33.956 14.9919 35.8233 8.71613 38.9225C9.51774 39.4504 10.5984 40.1201 12.4468 41C17.2581 38.7106 21.8935 35.6815 21.8935 27.6517V10.642H18.0597V26.5958ZM14.4 10.642H3V14.0231H10.5645V24.836C10.5645 29.7667 10.25 30.2246 3.90645 33.1119C4.37742 34.2851 5.02419 35.3785 5.82419 36.3529C13.0048 33.1119 14.4 31.458 14.4 25.8577V10.642ZM4.49839 3V5.99327C4.49839 6.76888 4.04516 7.29681 3.13871 7.29681H3V6.66296H3.10484C3.52258 6.66296 3.76774 6.45114 3.76774 5.99327V3.63385H3.10484V3H4.49839ZM5.78871 6.66296H6.45161V3H7.14839V6.5929C7.14839 7.05077 6.90484 7.2626 6.45161 7.2626H5.78871C5.33548 7.2626 5.09194 7.01655 5.09194 6.5929V3H5.78871V6.66296V6.66296ZM9.06613 5.64131V3.03585H9.7629V5.67716C9.7629 6.87479 9.13548 7.29681 8.05484 7.29681H7.70645V3H8.40323V6.55705H8.43871C8.89194 6.5929 9.06613 6.16925 9.06613 5.64131ZM11.0532 3.6697V4.79726H11.8548L11.7161 5.39527H11.0194V6.62875H12.0645L11.9597 7.2626H10.3565V3H11.9258L12.0306 3.63385H11.0548V3.6697H11.0532ZM13.8774 3H14.5403V7.26097H13.8774V5.81729L13.2145 4.33776H13.179V7.26097H12.5161V3H13.179L13.8419 4.61966H13.8774V3ZM16.979 3.6697H16.3161V7.29681H15.6194V3.6697H14.9565L15.0613 3.03585H16.8742L16.979 3.6697ZM18.0258 6.66296H18.6887V3.03585H19.3855V6.62875C19.3855 7.08662 19.1419 7.29844 18.6887 7.29844H18.0258C17.5726 7.29844 17.329 7.0524 17.329 6.62875V3.03585H18.0258V6.66296ZM19.9081 5.88735H20.6048V6.73303H21.2323V6.13503C21.2323 5.85314 21.1629 5.71301 20.9532 5.57124L20.2903 5.14922C20.0468 4.97324 19.9419 4.69135 19.9419 4.47952V3.70391C19.9419 3.24604 20.221 3.03422 20.6048 3.03422H21.2677C21.721 3.03422 21.9306 3.28026 21.9306 3.70391V4.23185L21.2677 4.40783V3.56378H20.6758V4.19763C20.6758 4.40946 20.7452 4.54959 20.9548 4.69135L21.5823 5.07916C21.8613 5.25513 22 5.50118 22 5.85477V6.66459C22 7.12246 21.721 7.29844 21.3371 7.29844H20.7097C20.2565 7.29844 20.0129 7.12246 20.0129 6.66459V5.88898L19.9081 5.88735Z" fill="black"/>
</svg>
