<svg width="414" height="53" viewBox="0 0 414 53" fill="none" xmlns="http://www.w3.org/2000/svg">
<path d="M29.5131 33V18.9H35.6731C37.2198 18.9 38.4131 19.2667 39.2531 20C40.1065 20.7333 40.5331 21.7533 40.5331 23.06C40.5331 23.9267 40.3398 24.6667 39.9531 25.28C39.5798 25.8933 39.0398 26.3667 38.3331 26.7C37.6265 27.02 36.7931 27.18 35.8331 27.18L36.1131 26.8H36.7931C37.3531 26.8 37.8531 26.9467 38.2931 27.24C38.7331 27.5333 39.0931 27.98 39.3731 28.58L41.4331 33H38.5931L36.5131 28.42C36.3265 27.9533 36.0398 27.6467 35.6531 27.5C35.2798 27.3533 34.8265 27.28 34.2931 27.28H32.0931V33H29.5131ZM32.0931 25.38H35.2531C36.1598 25.38 36.8465 25.1933 37.3131 24.82C37.7931 24.4333 38.0331 23.8733 38.0331 23.14C38.0331 22.4067 37.7931 21.8533 37.3131 21.48C36.8465 21.1067 36.1598 20.92 35.2531 20.92H32.0931V25.38ZM47.9822 33.2C46.2889 33.2 44.9622 32.7333 44.0022 31.8C43.0422 30.8667 42.5622 29.5867 42.5622 27.96C42.5622 26.9067 42.7689 25.9867 43.1822 25.2C43.5955 24.4133 44.1689 23.8 44.9022 23.36C45.6489 22.92 46.5155 22.7 47.5022 22.7C48.4755 22.7 49.2889 22.9067 49.9422 23.32C50.5955 23.7333 51.0889 24.3133 51.4222 25.06C51.7689 25.8067 51.9422 26.68 51.9422 27.68V28.34H44.5822V27.02H50.1622L49.8222 27.3C49.8222 26.3667 49.6222 25.6533 49.2222 25.16C48.8355 24.6667 48.2689 24.42 47.5222 24.42C46.6955 24.42 46.0555 24.7133 45.6022 25.3C45.1622 25.8867 44.9422 26.7067 44.9422 27.76V28.02C44.9422 29.1133 45.2089 29.9333 45.7422 30.48C46.2889 31.0133 47.0555 31.28 48.0422 31.28C48.6155 31.28 49.1489 31.2067 49.6422 31.06C50.1489 30.9 50.6289 30.6467 51.0822 30.3L51.8222 31.98C51.3422 32.3667 50.7689 32.6667 50.1022 32.88C49.4355 33.0933 48.7289 33.2 47.9822 33.2ZM58.6992 33.2C57.6592 33.2 56.7459 32.9867 55.9592 32.56C55.1859 32.1333 54.5859 31.5267 54.1592 30.74C53.7326 29.94 53.5192 28.9933 53.5192 27.9C53.5192 26.8067 53.7326 25.8733 54.1592 25.1C54.5992 24.3267 55.2059 23.7333 55.9792 23.32C56.7526 22.9067 57.6592 22.7 58.6992 22.7C59.3659 22.7 60.0126 22.8067 60.6392 23.02C61.2792 23.22 61.7992 23.5133 62.1992 23.9L61.4392 25.64C61.0792 25.3067 60.6726 25.06 60.2192 24.9C59.7792 24.7267 59.3459 24.64 58.9192 24.64C58.0259 24.64 57.3259 24.92 56.8192 25.48C56.3259 26.04 56.0792 26.8533 56.0792 27.92C56.0792 28.9867 56.3259 29.8067 56.8192 30.38C57.3259 30.9533 58.0259 31.24 58.9192 31.24C59.3326 31.24 59.7592 31.16 60.1992 31C60.6526 30.84 61.0659 30.5933 61.4392 30.26L62.1992 31.98C61.7859 32.3667 61.2592 32.6667 60.6192 32.88C59.9926 33.0933 59.3526 33.2 58.6992 33.2ZM68.822 33.2C67.1287 33.2 65.802 32.7333 64.842 31.8C63.882 30.8667 63.402 29.5867 63.402 27.96C63.402 26.9067 63.6087 25.9867 64.022 25.2C64.4354 24.4133 65.0087 23.8 65.742 23.36C66.4887 22.92 67.3554 22.7 68.342 22.7C69.3154 22.7 70.1287 22.9067 70.782 23.32C71.4354 23.7333 71.9287 24.3133 72.262 25.06C72.6087 25.8067 72.782 26.68 72.782 27.68V28.34H65.422V27.02H71.002L70.662 27.3C70.662 26.3667 70.462 25.6533 70.062 25.16C69.6754 24.6667 69.1087 24.42 68.362 24.42C67.5354 24.42 66.8954 24.7133 66.442 25.3C66.002 25.8867 65.782 26.7067 65.782 27.76V28.02C65.782 29.1133 66.0487 29.9333 66.582 30.48C67.1287 31.0133 67.8954 31.28 68.882 31.28C69.4554 31.28 69.9887 31.2067 70.482 31.06C70.9887 30.9 71.4687 30.6467 71.922 30.3L72.662 31.98C72.182 32.3667 71.6087 32.6667 70.942 32.88C70.2754 33.0933 69.5687 33.2 68.822 33.2ZM74.8991 33V25.42C74.8991 25.0067 74.8857 24.5867 74.8591 24.16C74.8324 23.7333 74.7924 23.3133 74.7391 22.9H77.1591L77.3591 24.9H77.1191C77.4391 24.1933 77.9124 23.6533 78.5391 23.28C79.1657 22.8933 79.8924 22.7 80.7191 22.7C81.9057 22.7 82.7991 23.0333 83.3991 23.7C83.9991 24.3667 84.2991 25.4067 84.2991 26.82V33H81.7991V26.94C81.7991 26.1267 81.6391 25.5467 81.3191 25.2C81.0124 24.84 80.5457 24.66 79.9191 24.66C79.1457 24.66 78.5324 24.9 78.0791 25.38C77.6257 25.86 77.3991 26.5 77.3991 27.3V33H74.8991ZM91.2698 33.2C90.0698 33.2 89.1632 32.8867 88.5498 32.26C87.9365 31.6333 87.6298 30.6933 87.6298 29.44V24.78H85.6898V22.9H87.6298V20.32L90.1298 19.68V22.9H92.8298V24.78H90.1298V29.28C90.1298 29.9733 90.2632 30.46 90.5298 30.74C90.7965 31.02 91.1632 31.16 91.6298 31.16C91.8832 31.16 92.0965 31.14 92.2698 31.1C92.4565 31.06 92.6365 31.0067 92.8098 30.94V32.92C92.5832 33.0133 92.3298 33.08 92.0498 33.12C91.7832 33.1733 91.5232 33.2 91.2698 33.2ZM100.236 33V18.9H102.496L107.676 30.56H107.056L112.236 18.9H114.476V33H112.136V22.54H112.856L108.116 33H106.576L101.836 22.54H102.576V33H100.236ZM121.319 33.2C120.439 33.2 119.665 32.9933 118.999 32.58C118.332 32.1533 117.812 31.5467 117.439 30.76C117.065 29.9733 116.879 29.0333 116.879 27.94C116.879 26.8467 117.065 25.9133 117.439 25.14C117.812 24.3533 118.332 23.7533 118.999 23.34C119.665 22.9133 120.439 22.7 121.319 22.7C122.172 22.7 122.919 22.9133 123.559 23.34C124.212 23.7533 124.645 24.3133 124.859 25.02H124.639L124.859 22.9H127.259C127.219 23.3133 127.179 23.7333 127.139 24.16C127.112 24.5867 127.099 25.0067 127.099 25.42V33H124.619L124.599 30.92H124.839C124.625 31.6133 124.192 32.1667 123.539 32.58C122.885 32.9933 122.145 33.2 121.319 33.2ZM122.019 31.28C122.805 31.28 123.439 31.0067 123.919 30.46C124.399 29.9 124.639 29.06 124.639 27.94C124.639 26.82 124.399 25.9867 123.919 25.44C123.439 24.8933 122.805 24.62 122.019 24.62C121.232 24.62 120.599 24.8933 120.119 25.44C119.639 25.9867 119.399 26.82 119.399 27.94C119.399 29.06 119.632 29.9 120.099 30.46C120.579 31.0067 121.219 31.28 122.019 31.28ZM134.141 33.2C132.941 33.2 132.034 32.8867 131.421 32.26C130.808 31.6333 130.501 30.6933 130.501 29.44V24.78H128.561V22.9H130.501V20.32L133.001 19.68V22.9H135.701V24.78H133.001V29.28C133.001 29.9733 133.134 30.46 133.401 30.74C133.668 31.02 134.034 31.16 134.501 31.16C134.754 31.16 134.968 31.14 135.141 31.1C135.328 31.06 135.508 31.0067 135.681 30.94V32.92C135.454 33.0133 135.201 33.08 134.921 33.12C134.654 33.1733 134.394 33.2 134.141 33.2ZM141.941 33.2C140.901 33.2 139.988 32.9867 139.201 32.56C138.428 32.1333 137.828 31.5267 137.401 30.74C136.975 29.94 136.761 28.9933 136.761 27.9C136.761 26.8067 136.975 25.8733 137.401 25.1C137.841 24.3267 138.448 23.7333 139.221 23.32C139.995 22.9067 140.901 22.7 141.941 22.7C142.608 22.7 143.255 22.8067 143.881 23.02C144.521 23.22 145.041 23.5133 145.441 23.9L144.681 25.64C144.321 25.3067 143.915 25.06 143.461 24.9C143.021 24.7267 142.588 24.64 142.161 24.64C141.268 24.64 140.568 24.92 140.061 25.48C139.568 26.04 139.321 26.8533 139.321 27.92C139.321 28.9867 139.568 29.8067 140.061 30.38C140.568 30.9533 141.268 31.24 142.161 31.24C142.575 31.24 143.001 31.16 143.441 31C143.895 30.84 144.308 30.5933 144.681 30.26L145.441 31.98C145.028 32.3667 144.501 32.6667 143.861 32.88C143.235 33.0933 142.595 33.2 141.941 33.2ZM147.38 33V18.28H149.88V24.92H149.6C149.906 24.2 150.38 23.6533 151.02 23.28C151.66 22.8933 152.393 22.7 153.22 22.7C154.42 22.7 155.313 23.04 155.9 23.72C156.486 24.3867 156.78 25.4067 156.78 26.78V33H154.28V26.9C154.28 26.1133 154.126 25.5467 153.82 25.2C153.526 24.84 153.053 24.66 152.4 24.66C151.64 24.66 151.026 24.9 150.56 25.38C150.106 25.8467 149.88 26.4733 149.88 27.26V33H147.38ZM164.31 33.2C162.617 33.2 161.29 32.7333 160.33 31.8C159.37 30.8667 158.89 29.5867 158.89 27.96C158.89 26.9067 159.097 25.9867 159.51 25.2C159.924 24.4133 160.497 23.8 161.23 23.36C161.977 22.92 162.844 22.7 163.83 22.7C164.804 22.7 165.617 22.9067 166.27 23.32C166.924 23.7333 167.417 24.3133 167.75 25.06C168.097 25.8067 168.27 26.68 168.27 27.68V28.34H160.91V27.02H166.49L166.15 27.3C166.15 26.3667 165.95 25.6533 165.55 25.16C165.164 24.6667 164.597 24.42 163.85 24.42C163.024 24.42 162.384 24.7133 161.93 25.3C161.49 25.8867 161.27 26.7067 161.27 27.76V28.02C161.27 29.1133 161.537 29.9333 162.07 30.48C162.617 31.0133 163.384 31.28 164.37 31.28C164.944 31.28 165.477 31.2067 165.97 31.06C166.477 30.9 166.957 30.6467 167.41 30.3L168.15 31.98C167.67 32.3667 167.097 32.6667 166.43 32.88C165.764 33.0933 165.057 33.2 164.31 33.2ZM173.987 33.2C173.121 33.2 172.321 33.1 171.587 32.9C170.867 32.6867 170.261 32.3933 169.767 32.02L170.467 30.34C170.974 30.6867 171.534 30.9533 172.147 31.14C172.761 31.3267 173.381 31.42 174.007 31.42C174.674 31.42 175.167 31.3067 175.487 31.08C175.821 30.8533 175.987 30.5467 175.987 30.16C175.987 29.8533 175.881 29.6133 175.667 29.44C175.467 29.2533 175.141 29.1133 174.687 29.02L172.687 28.64C171.834 28.4533 171.181 28.1333 170.727 27.68C170.287 27.2267 170.067 26.6333 170.067 25.9C170.067 25.2733 170.234 24.72 170.567 24.24C170.914 23.76 171.401 23.3867 172.027 23.12C172.667 22.84 173.414 22.7 174.267 22.7C175.014 22.7 175.714 22.8 176.367 23C177.034 23.2 177.594 23.5 178.047 23.9L177.327 25.52C176.914 25.1867 176.441 24.9267 175.907 24.74C175.374 24.5533 174.854 24.46 174.347 24.46C173.654 24.46 173.147 24.5867 172.827 24.84C172.507 25.08 172.347 25.3933 172.347 25.78C172.347 26.0733 172.441 26.32 172.627 26.52C172.827 26.7067 173.134 26.8467 173.547 26.94L175.547 27.32C176.441 27.4933 177.114 27.8 177.567 28.24C178.034 28.6667 178.267 29.2533 178.267 30C178.267 30.6667 178.087 31.24 177.727 31.72C177.367 32.2 176.867 32.5667 176.227 32.82C175.587 33.0733 174.841 33.2 173.987 33.2Z" fill="#0C49BE"/>
<path d="M0 50H205.5C206.328 50 207 50.6716 207 51.5V51.5C207 52.3284 206.328 53 205.5 53H0V50Z" fill="#0C49BE"/>
<path d="M270.906 33.18C268.999 33.18 267.579 32.6933 266.646 31.72C265.726 30.7467 265.266 29.3133 265.266 27.42V18.9H266.906V27.34C266.906 28.7933 267.226 29.8867 267.866 30.62C268.506 31.3533 269.519 31.72 270.906 31.72C272.213 31.72 273.206 31.3533 273.886 30.62C274.566 29.8867 274.906 28.7933 274.906 27.34V18.9H276.546V27.42C276.546 29.3133 276.066 30.7467 275.106 31.72C274.159 32.6933 272.759 33.18 270.906 33.18ZM279.775 37.32V25.28C279.775 24.9067 279.755 24.5267 279.715 24.14C279.689 23.74 279.655 23.3467 279.615 22.96H281.175L281.395 25.34H281.155C281.369 24.5533 281.802 23.9333 282.455 23.48C283.109 23.0133 283.889 22.78 284.795 22.78C285.702 22.78 286.482 22.9867 287.135 23.4C287.802 23.8133 288.322 24.4067 288.695 25.18C289.069 25.9533 289.255 26.8867 289.255 27.98C289.255 29.06 289.069 29.9867 288.695 30.76C288.335 31.5333 287.822 32.1333 287.155 32.56C286.489 32.9733 285.702 33.18 284.795 33.18C283.902 33.18 283.129 32.9533 282.475 32.5C281.822 32.0467 281.389 31.4267 281.175 30.64H281.395V37.32H279.775ZM284.475 31.86C285.435 31.86 286.195 31.5333 286.755 30.88C287.329 30.2133 287.615 29.2467 287.615 27.98C287.615 26.7 287.329 25.7333 286.755 25.08C286.195 24.4133 285.435 24.08 284.475 24.08C283.529 24.08 282.769 24.4133 282.195 25.08C281.635 25.7333 281.355 26.7 281.355 27.98C281.355 29.2467 281.635 30.2133 282.195 30.88C282.769 31.5333 283.529 31.86 284.475 31.86ZM295.988 33.18C295.001 33.18 294.141 32.9667 293.408 32.54C292.688 32.1133 292.128 31.5067 291.728 30.72C291.341 29.9333 291.148 29 291.148 27.92C291.148 26.8267 291.348 25.9 291.748 25.14C292.148 24.3667 292.708 23.78 293.428 23.38C294.161 22.98 295.014 22.78 295.988 22.78C296.628 22.78 297.248 22.8933 297.848 23.12C298.461 23.3467 298.968 23.6667 299.368 24.08L298.788 25.24C298.388 24.8533 297.948 24.5667 297.468 24.38C297.001 24.1933 296.541 24.1 296.088 24.1C295.048 24.1 294.241 24.4267 293.668 25.08C293.094 25.7333 292.808 26.6867 292.808 27.94C292.808 29.18 293.094 30.14 293.668 30.82C294.241 31.5 295.048 31.84 296.088 31.84C296.528 31.84 296.981 31.7533 297.448 31.58C297.928 31.4067 298.374 31.12 298.788 30.72L299.368 31.86C298.954 32.2867 298.441 32.6133 297.828 32.84C297.214 33.0667 296.601 33.18 295.988 33.18ZM305.595 33.18C304.635 33.18 303.795 32.9733 303.075 32.56C302.368 32.1333 301.821 31.5333 301.435 30.76C301.048 29.9733 300.855 29.0467 300.855 27.98C300.855 26.9 301.048 25.9733 301.435 25.2C301.821 24.4267 302.368 23.8333 303.075 23.42C303.795 22.9933 304.635 22.78 305.595 22.78C306.568 22.78 307.408 22.9933 308.115 23.42C308.835 23.8333 309.388 24.4267 309.775 25.2C310.175 25.9733 310.375 26.9 310.375 27.98C310.375 29.0467 310.175 29.9733 309.775 30.76C309.388 31.5333 308.835 32.1333 308.115 32.56C307.408 32.9733 306.568 33.18 305.595 33.18ZM305.595 31.86C306.555 31.86 307.315 31.5333 307.875 30.88C308.435 30.2133 308.715 29.2467 308.715 27.98C308.715 26.7 308.428 25.7333 307.855 25.08C307.295 24.4133 306.541 24.08 305.595 24.08C304.648 24.08 303.895 24.4133 303.335 25.08C302.775 25.7333 302.495 26.7 302.495 27.98C302.495 29.2467 302.775 30.2133 303.335 30.88C303.895 31.5333 304.648 31.86 305.595 31.86ZM312.9 33V25.28C312.9 24.9067 312.88 24.5267 312.84 24.14C312.814 23.74 312.78 23.3467 312.74 22.96H314.3L314.5 25.16H314.26C314.527 24.4 314.947 23.8133 315.52 23.4C316.107 22.9867 316.814 22.78 317.64 22.78C318.48 22.78 319.16 22.98 319.68 23.38C320.214 23.78 320.574 24.4 320.76 25.24H320.46C320.714 24.48 321.16 23.88 321.8 23.44C322.44 23 323.187 22.78 324.04 22.78C325.147 22.78 325.98 23.1 326.54 23.74C327.1 24.3667 327.38 25.36 327.38 26.72V33H325.76V26.82C325.76 25.8733 325.594 25.1867 325.26 24.76C324.927 24.32 324.394 24.1 323.66 24.1C322.82 24.1 322.154 24.3933 321.66 24.98C321.18 25.5533 320.94 26.3267 320.94 27.3V33H319.32V26.82C319.32 25.8733 319.154 25.1867 318.82 24.76C318.487 24.32 317.954 24.1 317.22 24.1C316.38 24.1 315.72 24.3933 315.24 24.98C314.76 25.5533 314.52 26.3267 314.52 27.3V33H312.9ZM330.459 33V22.96H332.079V33H330.459ZM330.259 20.68V18.86H332.259V20.68H330.259ZM335.225 33V25.28C335.225 24.9067 335.205 24.5267 335.165 24.14C335.138 23.74 335.105 23.3467 335.065 22.96H336.625L336.825 25.16H336.585C336.878 24.3867 337.345 23.8 337.985 23.4C338.638 22.9867 339.391 22.78 340.245 22.78C341.431 22.78 342.325 23.1 342.925 23.74C343.538 24.3667 343.845 25.36 343.845 26.72V33H342.225V26.82C342.225 25.8733 342.031 25.1867 341.645 24.76C341.271 24.32 340.685 24.1 339.885 24.1C338.951 24.1 338.211 24.3867 337.665 24.96C337.118 25.5333 336.845 26.3 336.845 27.26V33H335.225ZM351.363 37.46C350.497 37.46 349.697 37.3533 348.963 37.14C348.23 36.9267 347.57 36.6 346.983 36.16L347.463 34.94C347.877 35.2333 348.283 35.4667 348.683 35.64C349.083 35.8133 349.497 35.94 349.923 36.02C350.35 36.1133 350.803 36.16 351.283 36.16C352.27 36.16 353.017 35.9 353.523 35.38C354.03 34.86 354.283 34.12 354.283 33.16V30.22H354.483C354.27 31.0067 353.83 31.6333 353.163 32.1C352.497 32.5533 351.717 32.78 350.823 32.78C349.903 32.78 349.103 32.58 348.423 32.18C347.757 31.7667 347.237 31.1867 346.863 30.44C346.503 29.68 346.323 28.7867 346.323 27.76C346.323 26.7467 346.503 25.8667 346.863 25.12C347.237 24.3733 347.757 23.8 348.423 23.4C349.103 22.9867 349.903 22.78 350.823 22.78C351.73 22.78 352.51 23.0067 353.163 23.46C353.83 23.9133 354.27 24.54 354.483 25.34L354.283 25.14L354.463 22.96H356.043C355.99 23.3467 355.95 23.74 355.923 24.14C355.897 24.5267 355.883 24.9067 355.883 25.28V32.94C355.883 34.4333 355.497 35.56 354.723 36.32C353.963 37.08 352.843 37.46 351.363 37.46ZM351.123 31.46C352.097 31.46 352.863 31.14 353.423 30.5C353.983 29.8467 354.263 28.9333 354.263 27.76C354.263 26.5867 353.983 25.68 353.423 25.04C352.863 24.4 352.097 24.08 351.123 24.08C350.163 24.08 349.397 24.4 348.823 25.04C348.25 25.68 347.963 26.5867 347.963 27.76C347.963 28.9333 348.25 29.8467 348.823 30.5C349.397 31.14 350.163 31.46 351.123 31.46Z" fill="#7F8084"/>
<rect width="207" height="3" transform="translate(207 50)" fill="#E3E5E8"/>
</svg>
